<?xml version="1.0" standalone="no"?>
<!DOCTYPE svg PUBLIC "-//W3C//DTD SVG 20010904//EN"
 "http://www.w3.org/TR/2001/REC-SVG-20010904/DTD/svg10.dtd">
<svg version="1.0" xmlns="http://www.w3.org/2000/svg"
 width="24.000000pt" height="24.000000pt" viewBox="0 0 512.000000 512.000000"
 preserveAspectRatio="xMidYMid meet">

<g transform="translate(0.000000,512.000000) scale(0.100000,-0.100000)"
fill="#000000" stroke="none">
<path d="M1910 4154 c-169 -18 -322 -61 -435 -124 -189 -106 -357 -300 -436
-506 -39 -100 -73 -300 -65 -374 21 -188 21 -183 -14 -251 -17 -35 -67 -116
-110 -180 -128 -192 -128 -218 5 -284 90 -45 98 -60 75 -140 -10 -35 -9 -47 4
-73 9 -17 21 -32 28 -34 10 -4 10 -10 0 -32 -17 -38 -15 -55 11 -90 33 -43 39
-76 27 -151 -20 -126 22 -197 135 -231 46 -13 80 -15 174 -9 185 11 245 -17
269 -127 21 -96 51 -290 68 -440 l17 -148 759 0 c417 0 758 3 758 6 0 3 -33
49 -73 103 -193 256 -308 512 -342 764 l-6 49 -42 -9 c-23 -4 -100 -8 -172 -8
-126 1 -133 2 -228 39 -85 32 -103 36 -129 27 -78 -27 -166 4 -200 71 -11 20
-26 74 -34 120 -9 46 -27 112 -40 147 -65 168 -80 330 -44 476 84 339 384 562
730 542 95 -5 224 -40 276 -73 17 -12 28 -13 43 -5 11 6 38 11 61 11 l42 0 -6
48 c-19 132 -87 305 -164 418 -131 192 -314 331 -542 412 -111 39 -303 66
-400 56z"/>
<path d="M3075 4153 c-83 -7 -210 -35 -291 -64 -46 -17 -84 -33 -84 -36 0 -3
38 -41 85 -85 186 -174 304 -382 354 -625 12 -56 21 -135 21 -175 1 -110 24
-246 53 -308 38 -81 61 -217 54 -320 -8 -112 -28 -187 -77 -285 -55 -109 -116
-183 -213 -256 -93 -70 -90 -59 -61 -218 41 -226 132 -408 348 -698 l91 -122
51 -1 51 0 7 78 c8 88 62 458 75 515 11 47 34 82 68 104 23 15 52 18 198 18
161 0 173 1 220 25 79 40 96 78 93 215 -3 102 -1 112 21 142 23 31 26 71 7
115 -5 11 -1 18 13 23 29 9 36 49 23 115 -11 49 -10 58 6 80 10 13 45 35 78
47 129 50 125 102 -21 313 -29 41 -67 104 -86 140 -29 57 -33 73 -30 130 2 36
4 124 4 195 0 114 -3 141 -27 219 -97 319 -288 532 -582 649 -137 55 -308 81
-449 70z"/>
<path d="M2505 3119 c-235 -23 -436 -210 -475 -441 -14 -83 -4 -118 34 -118
33 0 43 16 55 87 36 224 245 395 465 381 79 -5 155 -34 231 -89 59 -42 60 -64
3 -56 -23 3 -50 1 -60 -4 -21 -11 -25 -61 -5 -76 6 -6 72 -18 145 -28 177 -24
171 -29 147 137 -21 155 -26 168 -64 168 -35 0 -51 -22 -51 -71 l0 -32 -32 27
c-70 56 -199 110 -283 118 -22 2 -71 1 -110 -3z"/>
<path d="M3023 2572 c-6 -4 -14 -25 -18 -47 -33 -199 -164 -342 -357 -391 -73
-19 -153 -13 -233 17 -55 20 -165 93 -165 109 0 5 22 9 50 9 73 -2 105 36 63
73 -17 14 -170 38 -246 38 -57 0 -61 -13 -42 -142 22 -155 24 -166 41 -172 8
-3 25 0 39 6 21 9 25 18 25 55 0 23 2 43 5 43 2 0 35 -20 72 -45 98 -66 160
-87 279 -93 117 -5 183 10 279 63 81 45 138 96 184 164 65 96 114 258 91 301
-11 20 -45 26 -67 12z"/>
</g>
</svg>
