<?xml version="1.0" standalone="no"?>
<!DOCTYPE svg PUBLIC "-//W3C//DTD SVG 20010904//EN"
 "http://www.w3.org/TR/2001/REC-SVG-20010904/DTD/svg10.dtd">
<svg version="1.0" xmlns="http://www.w3.org/2000/svg"
 width="512.000000pt" height="512.000000pt" viewBox="0 0 512.000000 512.000000"
 preserveAspectRatio="xMidYMid meet">

<g transform="translate(0.000000,512.000000) scale(0.100000,-0.100000)"
fill="#000000" stroke="none">
<path d="M3560 4716 c-115 -33 -185 -92 -312 -263 -140 -188 -231 -351 -341
-608 -59 -139 -123 -318 -152 -427 l-18 -68 -554 0 c-597 0 -637 -3 -765 -55
l-57 -23 -47 45 c-64 62 -154 102 -242 110 -169 14 -339 -94 -404 -257 -21
-52 -22 -76 -28 -415 -7 -381 -11 -419 -63 -570 -30 -88 -77 -181 -133 -266
-50 -76 -55 -109 -19 -144 29 -30 81 -33 188 -9 203 45 376 188 455 376 l28
67 37 -48 c59 -77 80 -135 85 -231 3 -73 -5 -133 -63 -440 -37 -195 -68 -357
-71 -359 -6 -7 -153 28 -329 77 -197 56 -272 60 -351 19 -96 -49 -164 -156
-164 -257 0 -73 30 -141 90 -200 65 -66 82 -72 414 -155 642 -162 1287 -235
1951 -222 604 12 1120 80 1685 222 334 84 360 94 425 167 147 163 63 421 -151
469 -65 15 -70 14 -394 -69 -230 -58 -376 -89 -384 -81 -7 7 -187 852 -188
879 0 22 405 1388 421 1417 4 8 37 -6 106 -47 167 -99 269 -120 396 -80 153
48 269 203 269 361 0 68 -27 158 -64 215 -24 36 -157 156 -457 414 -450 386
-489 417 -559 444 -58 23 -182 29 -240 12z m163 -157 l39 -10 -119 -122 c-145
-150 -232 -272 -318 -442 -80 -160 -126 -297 -163 -486 l-29 -144 -116 -3
-116 -3 18 63 c47 162 143 404 233 583 95 191 289 468 369 527 58 43 132 57
202 37z m553 -439 c201 -173 379 -329 394 -347 74 -84 63 -221 -25 -302 -50
-46 -108 -65 -177 -59 -35 4 -85 27 -215 101 -195 112 -226 119 -257 58 -8
-14 -118 -375 -246 -801 l-233 -775 97 -455 c53 -250 97 -460 96 -466 0 -10
-70 -23 -262 -50 l-47 -6 -20 68 c-11 38 -61 213 -111 389 -50 176 -102 344
-115 372 -33 72 -110 147 -193 186 l-67 32 -415 0 -415 0 -67 -32 c-83 -39
-160 -114 -193 -186 -13 -28 -72 -221 -131 -427 -58 -206 -108 -377 -110 -379
-3 -3 -62 6 -227 35 -75 14 -87 19 -87 36 0 11 27 162 60 336 78 417 81 441
69 531 -15 103 -52 191 -121 282 -157 208 -180 414 -70 623 102 196 300 306
548 306 l102 0 4 -202 3 -203 34 -63 c38 -70 69 -100 145 -140 l51 -27 285 0
285 0 63 34 c70 38 100 69 140 145 26 50 27 57 30 254 l4 202 174 0 c218 0
211 -4 237 150 64 381 171 633 375 883 69 85 212 219 229 215 7 -2 177 -145
379 -318z m-3141 -874 c28 -13 58 -32 67 -43 17 -18 15 -21 -45 -84 -77 -82
-121 -154 -160 -266 -30 -86 -31 -95 -37 -328 -6 -209 -9 -247 -27 -292 -33
-83 -67 -134 -125 -190 -48 -44 -158 -113 -158 -98 0 3 11 28 25 55 33 65 79
204 101 305 14 64 19 152 23 435 l6 355 28 47 c66 113 192 156 302 104z m1583
-245 c-3 -207 -6 -216 -72 -265 -26 -20 -40 -21 -286 -21 -246 0 -260 1 -286
21 -66 49 -69 58 -72 265 l-3 189 361 0 361 0 -3 -189z m177 -1115 c54 -25
103 -74 123 -122 14 -34 222 -758 218 -761 -1 -1 -49 -7 -106 -13 -164 -17
-760 -24 -960 -11 -231 15 -416 32 -431 41 -12 8 179 696 211 760 24 47 65 85
120 109 43 19 64 21 410 21 361 0 365 0 415 -24z m-2231 -821 c346 -98 733
-172 1111 -214 282 -32 463 -41 785 -41 322 0 503 9 785 41 380 42 765 117
1114 215 78 22 137 33 154 30 77 -16 121 -90 98 -165 -20 -69 -50 -82 -389
-165 -1051 -260 -2134 -285 -3187 -75 -230 45 -609 140 -661 165 -94 45 -96
176 -3 226 45 24 49 24 193 -17z"/>
<path d="M4025 4045 c-16 -15 -25 -36 -25 -55 0 -19 9 -40 25 -55 15 -16 36
-25 55 -25 19 0 40 9 55 25 16 15 25 36 25 55 0 19 -9 40 -25 55 -15 16 -36
25 -55 25 -19 0 -40 -9 -55 -25z"/>
</g>
</svg>
