<?xml version="1.0" standalone="no"?>
<!DOCTYPE svg PUBLIC "-//W3C//DTD SVG 20010904//EN"
 "http://www.w3.org/TR/2001/REC-SVG-20010904/DTD/svg10.dtd">
<svg version="1.0" xmlns="http://www.w3.org/2000/svg"
 width="24px" height="24px" viewBox="0 0 512.000000 512.000000"
 preserveAspectRatio="xMidYMid meet">

<g transform="translate(0.000000,512.000000) scale(0.100000,-0.100000)"
fill="#000000" stroke="none">
<path d="M2478 4529 c-56 -29 -70 -65 -76 -197 -3 -71 -9 -115 -16 -117 -6 -2
-63 -13 -126 -25 -339 -63 -626 -214 -870 -459 -255 -256 -396 -526 -464 -886
l-23 -120 -115 -6 c-141 -8 -167 -20 -202 -91 -32 -64 -32 -72 0 -136 35 -71
61 -83 202 -91 l115 -6 23 -123 c125 -687 652 -1218 1331 -1343 65 -12 123
-23 129 -24 7 -2 13 -46 16 -117 6 -142 19 -170 91 -204 65 -30 71 -30 135 2
72 36 84 62 91 204 6 113 6 115 31 118 14 2 72 12 130 23 670 132 1190 663
1314 1342 l23 122 115 6 c143 8 170 21 204 92 13 29 24 59 24 67 0 8 -11 38
-24 67 -34 71 -61 84 -204 92 l-115 6 -22 120 c-97 530 -428 969 -910 1207
-137 68 -290 117 -465 147 l-95 17 -6 115 c-5 77 -12 126 -23 147 -34 66 -143
91 -218 51z m-59 -702 c33 -61 79 -91 142 -91 66 0 121 38 144 98 16 42 21 46
50 46 51 0 212 -44 310 -85 303 -125 548 -358 696 -660 60 -124 104 -258 115
-351 l7 -52 -51 -26 c-129 -65 -132 -216 -6 -288 64 -36 65 -42 30 -179 -65
-246 -174 -435 -358 -618 -184 -184 -372 -292 -617 -357 -137 -35 -145 -34
-176 26 -65 128 -215 130 -287 4 -26 -46 -34 -54 -60 -54 -70 0 -273 67 -410
136 -220 110 -464 355 -576 579 -49 98 -81 184 -108 284 -35 137 -34 143 30
179 95 54 119 144 61 233 -16 25 -39 43 -69 54 -53 21 -54 25 -30 142 71 344
313 676 628 862 154 90 390 174 475 168 30 -2 38 -8 60 -50z"/>
<path d="M2418 3375 c-163 -31 -304 -103 -425 -218 -425 -404 -311 -1094 222
-1346 305 -144 663 -85 912 152 250 238 327 590 199 909 -73 181 -238 354
-417 438 -144 67 -342 93 -491 65z"/>
</g>
</svg>
