<?xml version="1.0" standalone="no"?>
<!DOCTYPE svg PUBLIC "-//W3C//DTD SVG 20010904//EN"
 "http://www.w3.org/TR/2001/REC-SVG-20010904/DTD/svg10.dtd">
<svg version="1.0" xmlns="http://www.w3.org/2000/svg"
 width="256.000000pt" height="256.000000pt" viewBox="0 0 256.000000 256.000000"
 preserveAspectRatio="xMidYMid meet">

<g transform="translate(0.000000,256.000000) scale(0.100000,-0.100000)"
fill="#000000" stroke="none">
<path d="M2022 2108 c-22 -22 -12 -48 43 -108 148 -161 238 -383 252 -620 17
-308 -93 -596 -307 -807 -79 -78 -91 -98 -68 -121 24 -24 50 -11 127 65 247
247 365 591 321 939 -29 235 -114 426 -267 602 -54 61 -78 73 -101 50z"/>
<path d="M370 1973 c-162 -219 -239 -531 -200 -808 32 -224 115 -411 259 -582
55 -66 83 -82 106 -63 24 20 17 54 -16 86 -84 80 -185 249 -228 384 -102 312
-43 685 149 940 49 65 51 103 8 108 -23 3 -34 -6 -78 -65z"/>
<path d="M1833 1918 c-24 -31 -21 -39 32 -100 63 -71 136 -210 162 -308 13
-47 18 -102 17 -195 0 -155 -15 -219 -82 -355 -38 -79 -61 -110 -134 -184 -87
-88 -100 -110 -76 -134 19 -19 32 -15 88 30 113 92 217 260 261 424 30 107 32
326 5 429 -25 98 -94 239 -150 310 -75 94 -101 111 -123 83z"/>
<path d="M590 1813 c-17 -21 -49 -74 -70 -118 -152 -313 -103 -695 120 -938
45 -48 60 -58 77 -53 39 13 35 43 -16 102 -230 269 -254 649 -61 939 46 68 45
68 24 89 -24 24 -40 20 -74 -21z"/>
<path d="M1636 1721 c-20 -22 -18 -27 30 -87 86 -106 128 -264 106 -397 -22
-124 -97 -254 -183 -315 -45 -32 -57 -58 -36 -79 24 -25 60 -8 132 58 106 100
175 263 175 414 0 136 -52 277 -137 374 -49 56 -61 60 -87 32z"/>
<path d="M1352 1668 c-8 -8 -12 -67 -12 -200 l0 -187 -34 20 c-19 11 -60 23
-90 26 -74 8 -132 -15 -184 -71 -85 -93 -82 -216 8 -306 87 -87 206 -93 299
-14 72 62 75 76 81 373 l5 265 32 -33 c18 -18 38 -51 44 -74 16 -61 24 -72 49
-72 36 0 46 27 32 82 -18 67 -69 133 -132 171 -58 34 -79 39 -98 20z m-98
-432 c107 -44 110 -203 5 -256 -79 -41 -163 -8 -195 75 -46 122 69 232 190
181z"/>
<path d="M805 1644 c-46 -46 -94 -183 -102 -290 -10 -146 46 -316 140 -420 34
-37 47 -45 64 -40 39 13 38 42 -5 93 -135 163 -158 372 -62 563 35 69 35 73
14 94 -20 20 -29 20 -49 0z"/>
</g>
</svg>
