<?xml version="1.0" standalone="no"?>
<!DOCTYPE svg PUBLIC "-//W3C//DTD SVG 20010904//EN"
 "http://www.w3.org/TR/2001/REC-SVG-20010904/DTD/svg10.dtd">
<svg version="1.0" xmlns="http://www.w3.org/2000/svg"
 width="32.000000pt" height="32.000000pt" viewBox="0 0 32.000000 32.000000"
 preserveAspectRatio="xMidYMid meet">

<g transform="translate(0.000000,32.000000) scale(0.100000,-0.100000)"
fill="#000000" stroke="none">
<path d="M64 214 c-4 -14 -3 -34 2 -45 7 -15 9 -9 10 26 1 51 -3 57 -12 19z"/>
<path d="M244 197 c1 -25 4 -40 8 -34 10 16 10 49 -1 65 -5 8 -8 -4 -7 -31z"/>
<path d="M102 190 c0 -19 2 -27 5 -17 2 9 2 25 0 35 -3 9 -5 1 -5 -18z"/>
<path d="M137 213 c-3 -4 -8 -29 -12 -56 -8 -51 4 -77 35 -77 33 0 44 26 34
83 -7 42 -13 53 -31 55 -11 2 -23 0 -26 -5z m41 -20 c-2 -10 -10 -18 -18 -18
-8 0 -16 8 -18 18 -2 12 3 17 18 17 15 0 20 -5 18 -17z m7 -68 c0 -25 -4 -30
-25 -30 -16 0 -26 6 -28 18 -6 30 6 49 30 45 18 -2 23 -9 23 -33z"/>
<path d="M212 190 c0 -19 2 -27 5 -17 2 9 2 25 0 35 -3 9 -5 1 -5 -18z"/>
</g>
</svg>
