<?xml version="1.0" standalone="no"?>
<!DOCTYPE svg PUBLIC "-//W3C//DTD SVG 20010904//EN"
 "http://www.w3.org/TR/2001/REC-SVG-20010904/DTD/svg10.dtd">
<svg version="1.0" xmlns="http://www.w3.org/2000/svg"
 width="64.000000pt" height="64.000000pt" viewBox="0 0 64.000000 64.000000"
 preserveAspectRatio="xMidYMid meet">

<g transform="translate(0.000000,64.000000) scale(0.100000,-0.100000)"
fill="#000000" stroke="none">
<path d="M500 521 c0 -5 7 -14 16 -22 37 -31 59 -92 59 -169 0 -83 -15 -122
-68 -177 -17 -18 -27 -36 -23 -40 4 -5 26 12 47 36 84 94 90 247 14 346 -25
33 -45 45 -45 26z"/>
<path d="M82 478 c-43 -71 -52 -151 -26 -237 15 -53 66 -122 80 -108 4 4 -2
17 -13 30 -43 46 -58 89 -58 167 0 64 4 82 28 124 30 54 31 56 18 56 -5 0 -18
-15 -29 -32z"/>
<path d="M476 440 c48 -73 43 -174 -13 -241 -29 -34 -24 -52 7 -24 73 66 80
211 12 288 -28 32 -32 17 -6 -23z"/>
<path d="M130 420 c-28 -55 -27 -134 3 -191 13 -24 32 -46 43 -48 18 -3 18 -2
3 15 -52 60 -64 151 -29 219 23 45 23 45 10 45 -5 0 -19 -18 -30 -40z"/>
<path d="M410 423 c0 -5 7 -17 15 -27 8 -11 15 -41 15 -67 0 -37 -6 -55 -26
-79 -32 -37 -24 -53 11 -20 40 37 49 114 20 171 -14 26 -35 40 -35 22z"/>
<path d="M337 414 c-4 -4 -7 -25 -7 -46 0 -36 -2 -38 -30 -38 -63 0 -77 -90
-16 -106 52 -13 76 24 76 120 1 38 2 40 15 22 8 -11 18 -16 22 -13 7 8 -27 59
-43 64 -6 2 -13 0 -17 -3z m-12 -139 c0 -38 -37 -48 -55 -15 -14 27 4 52 34
48 16 -2 21 -10 21 -33z"/>
<path d="M190 391 c-17 -33 -12 -103 12 -141 11 -19 23 -29 25 -23 3 7 -3 23
-11 35 -18 25 -21 100 -6 129 7 12 7 19 1 19 -6 0 -15 -9 -21 -19z"/>
</g>
</svg>
