<?xml version="1.0" standalone="no"?>
<!DOCTYPE svg PUBLIC "-//W3C//DTD SVG 20010904//EN"
 "http://www.w3.org/TR/2001/REC-SVG-20010904/DTD/svg10.dtd">
<svg version="1.0" xmlns="http://www.w3.org/2000/svg"
 width="512.000000pt" height="512.000000pt" viewBox="0 0 512.000000 512.000000"
 preserveAspectRatio="xMidYMid meet">

<g transform="translate(0.000000,512.000000) scale(0.100000,-0.100000)"
fill="#000000" stroke="none">
<path d="M617 4440 c-115 -20 -214 -102 -252 -210 -18 -52 -210 -2802 -201
-2884 8 -71 49 -148 107 -200 57 -51 117 -75 210 -83 l67 -6 6 -54 c29 -251
311 -399 542 -286 105 51 193 178 202 291 l4 52 1258 0 1258 0 4 -52 c9 -113
97 -240 202 -291 232 -114 513 35 542 287 l7 56 47 0 c168 0 319 128 336 286
3 27 -38 677 -90 1444 -75 1095 -99 1406 -112 1445 -23 67 -119 164 -189 191
-49 18 -102 19 -1975 20 -1059 1 -1946 -2 -1973 -6z m3867 -160 c49 -11 85
-37 109 -78 16 -28 30 -204 114 -1439 l96 -1408 -24 -44 c-14 -26 -39 -54 -59
-66 -35 -20 -41 -20 -2161 -20 l-2125 0 -41 27 c-28 19 -46 40 -58 71 -16 43
-14 89 78 1438 71 1043 98 1403 110 1430 17 40 64 78 111 89 46 11 3803 11
3850 0z m-3344 -3250 c0 -67 -59 -148 -129 -177 -39 -17 -124 -19 -162 -4 -68
25 -138 119 -139 184 l0 27 215 0 215 0 0 -30z m3270 3 c-1 -65 -71 -159 -139
-184 -14 -6 -50 -10 -80 -10 -104 0 -197 78 -208 175 l-6 46 217 0 216 0 0
-27z"/>
<path d="M749 4031 c-16 -17 -29 -40 -29 -54 0 -13 -34 -546 -75 -1183 -41
-638 -76 -1190 -77 -1227 -3 -64 -1 -70 25 -93 l28 -24 1939 0 1939 0 28 24
c27 23 28 28 25 97 -1 40 -36 591 -77 1224 -41 632 -75 1163 -75 1178 0 18
-11 39 -29 58 l-29 29 -1782 0 -1782 0 -29 -29z m3495 -163 c3 -18 35 -501 71
-1073 36 -572 68 -1073 72 -1112 l6 -73 -1833 0 -1833 0 6 73 c4 39 36 540 72
1112 36 572 68 1055 71 1073 l5 32 1679 0 1679 0 5 -32z"/>
<path d="M1485 3605 c-32 -31 -32 -66 -1 -102 l24 -28 1052 0 1052 0 24 28
c31 36 31 71 -1 102 l-24 25 -1051 0 -1051 0 -24 -25z"/>
<path d="M1485 3215 c-39 -38 -27 -102 22 -124 17 -8 320 -11 1053 -11 733 0
1036 3 1053 11 49 22 61 86 22 124 l-24 25 -1051 0 -1051 0 -24 -25z"/>
<path d="M1504 2838 c-47 -22 -56 -86 -19 -123 l24 -25 1051 0 1051 0 24 25
c39 38 27 102 -22 124 -33 15 -2078 14 -2109 -1z"/>
<path d="M1345 2457 c-97 -33 -167 -94 -212 -185 -24 -49 -28 -69 -28 -142 0
-103 29 -175 97 -242 72 -72 125 -93 243 -93 89 0 105 3 151 27 94 49 154 125
179 226 40 156 -45 328 -193 394 -58 26 -180 34 -237 15z m180 -167 c133 -64
135 -254 3 -321 -53 -27 -144 -23 -186 8 -114 84 -105 248 18 311 55 27 111
28 165 2z"/>
<path d="M3575 2457 c-91 -30 -165 -96 -206 -181 -82 -172 -16 -363 156 -454
44 -24 61 -27 150 -27 86 0 107 3 150 25 67 33 131 99 163 168 35 76 37 201 4
275 -30 67 -112 150 -175 178 -63 27 -183 35 -242 16z m185 -167 c83 -42 120
-147 82 -232 -51 -116 -204 -146 -292 -58 -66 66 -74 164 -20 241 46 63 156
87 230 49z"/>
<path d="M2023 2200 c-47 -19 -57 -87 -18 -125 l24 -25 531 0 531 0 24 25 c30
29 32 74 6 106 l-19 24 -529 2 c-292 1 -538 -2 -550 -7z"/>
</g>
</svg>
