<?xml version="1.0" standalone="no"?>
<!DOCTYPE svg PUBLIC "-//W3C//DTD SVG 20010904//EN"
 "http://www.w3.org/TR/2001/REC-SVG-20010904/DTD/svg10.dtd">
<svg version="1.0" xmlns="http://www.w3.org/2000/svg"
 width="512.000000pt" height="512.000000pt" viewBox="0 0 512.000000 512.000000"
 preserveAspectRatio="xMidYMid meet">

<g transform="translate(0.000000,512.000000) scale(0.100000,-0.100000)"
fill="#000000" stroke="none">
<path d="M2395 4949 c-147 -21 -324 -89 -455 -173 -94 -61 -246 -209 -310
-302 -105 -153 -182 -360 -197 -531 l-6 -72 -401 -3 c-394 -3 -402 -3 -452
-26 -64 -29 -137 -102 -165 -166 -24 -56 -16 49 -140 -1781 -71 -1058 -72
-1071 -55 -1126 41 -130 153 -216 294 -227 l70 -5 7 -45 c20 -131 103 -245
217 -298 54 -25 75 -29 153 -29 82 0 96 3 157 33 117 57 193 163 212 295 l7
47 1228 0 1229 0 6 -22 c3 -13 6 -33 6 -45 0 -12 9 -47 21 -78 29 -77 104
-156 187 -197 61 -30 75 -33 157 -33 78 0 99 4 153 29 114 53 197 167 217 298
l7 45 67 5 c120 9 217 68 269 165 17 32 34 81 37 108 5 43 -162 2620 -180
2770 -13 108 -90 212 -189 257 -50 23 -58 23 -452 26 l-401 3 -7 75 c-15 168
-89 370 -186 514 -60 89 -181 212 -274 282 -229 170 -542 249 -831 207z m397
-178 c344 -89 599 -335 705 -678 25 -82 27 -101 27 -268 0 -167 -2 -186 -27
-268 -53 -172 -136 -309 -262 -432 -302 -296 -777 -359 -1147 -152 -338 189
-525 543 -497 937 30 428 363 792 797 875 104 20 301 13 404 -14z m-1348
-1143 c8 -46 19 -95 22 -110 l6 -28 -329 0 c-317 0 -331 -1 -356 -20 -14 -11
-28 -28 -31 -38 -10 -36 -159 -2429 -152 -2455 15 -61 -116 -57 1956 -57 2073
0 1941 -4 1957 58 3 15 -28 565 -71 1222 -42 657 -77 1203 -76 1213 0 10 -13
32 -29 48 l-29 29 -331 0 c-223 0 -331 3 -331 10 0 6 7 39 14 73 8 34 18 79
21 100 l6 37 377 0 c372 0 378 0 422 -22 89 -45 76 63 180 -1483 103 -1533
101 -1412 24 -1471 l-37 -29 -2071 -3 c-1139 -1 -2086 0 -2104 3 -44 8 -99 59
-113 103 -8 30 8 318 81 1402 86 1272 93 1368 113 1410 15 31 35 52 62 67 39
22 45 23 421 23 l381 0 17 -82z m130 -361 c19 -35 57 -92 85 -128 l50 -64 -95
-5 c-85 -4 -98 -8 -115 -29 -24 -30 -24 -72 0 -102 19 -23 24 -24 206 -27
l186 -3 62 -40 c124 -81 274 -139 419 -163 77 -13 53 -14 -364 -15 -282 -1
-457 -5 -474 -11 -56 -22 -72 -85 -32 -127 l21 -23 1036 0 1035 0 23 22 c26
24 30 72 9 100 -26 35 -62 38 -514 39 -403 1 -439 2 -369 14 153 26 294 80
417 159 l69 45 186 3 c182 3 187 4 206 27 24 30 24 72 0 102 -17 21 -30 25
-115 29 l-96 5 40 50 c22 28 61 85 87 128 l46 77 313 0 313 0 5 -42 c3 -24 35
-506 71 -1073 36 -566 67 -1054 71 -1082 l5 -53 -1801 0 -1801 0 5 53 c4 28
35 516 71 1082 36 567 68 1049 71 1073 l5 42 314 0 313 0 36 -63z m-410 -2764
c-10 -61 -50 -120 -100 -149 -134 -79 -290 -6 -319 149 l-7 37 216 0 217 0 -7
-37z m3211 0 c-29 -155 -185 -228 -319 -149 -50 29 -90 88 -100 149 l-7 37
217 0 216 0 -7 -37z"/>
<path d="M2627 4518 c-34 -27 -37 -64 -37 -508 l0 -439 -37 16 c-24 10 -78 18
-143 21 -89 3 -115 1 -169 -18 -84 -28 -146 -72 -181 -127 -57 -90 -48 -179
25 -261 163 -181 549 -149 644 53 20 44 21 57 21 545 0 275 3 500 6 500 3 0
38 -16 78 -35 145 -70 252 -80 302 -30 30 30 31 66 2 100 -19 21 -34 27 -78
30 -75 4 -150 35 -263 105 -97 61 -137 72 -170 48z m-117 -1089 c60 -27 80
-47 80 -80 0 -62 -122 -117 -234 -105 -103 11 -187 66 -172 114 9 28 47 60 91
76 61 22 181 20 235 -5z"/>
<path d="M1505 2275 c-16 -15 -25 -36 -25 -55 0 -19 9 -40 25 -55 l24 -25
1031 0 1031 0 24 25 c33 32 33 78 0 110 l-24 25 -1031 0 -1031 0 -24 -25z"/>
<path d="M1384 1921 c-100 -26 -186 -99 -231 -198 -33 -72 -34 -173 -4 -254
59 -157 231 -246 392 -205 107 28 181 88 228 186 22 47 26 68 26 145 0 84 -2
95 -34 153 -59 108 -160 172 -281 178 -36 2 -79 0 -96 -5z m152 -170 c124 -56
139 -231 27 -307 -87 -59 -211 -26 -260 69 -41 80 -3 195 79 236 53 26 100 26
154 2z"/>
<path d="M3565 1917 c-226 -75 -314 -323 -185 -519 62 -94 203 -157 316 -143
70 8 163 56 208 105 193 214 58 549 -228 566 -43 2 -87 -1 -111 -9z m189 -178
c94 -64 106 -200 24 -276 -39 -36 -96 -56 -144 -48 -175 26 -210 262 -50 336
53 25 123 20 170 -12z"/>
<path d="M2015 1645 c-16 -15 -25 -36 -25 -55 0 -19 9 -40 25 -55 l24 -25 521
0 521 0 24 25 c16 15 25 36 25 55 0 19 -9 40 -25 55 l-24 25 -521 0 -521 0
-24 -25z"/>
</g>
</svg>
