<?xml version="1.0" standalone="no"?>
<!DOCTYPE svg PUBLIC "-//W3C//DTD SVG 20010904//EN"
 "http://www.w3.org/TR/2001/REC-SVG-20010904/DTD/svg10.dtd">
<svg version="1.0" xmlns="http://www.w3.org/2000/svg"
 width="24px" height="24px" viewBox="0 0 512.000000 512.000000"
 preserveAspectRatio="xMidYMid meet">

<g transform="translate(0.000000,512.000000) scale(0.100000,-0.100000)"
fill="#000000" stroke="none">
<path d="M2368 4539 c-246 -36 -494 -204 -640 -434 -91 -143 -133 -276 -145
-450 -19 -286 83 -545 294 -746 127 -122 241 -188 400 -234 78 -23 106 -26
246 -26 182 0 250 10 356 53 287 113 502 351 583 643 18 68 22 106 22 250 0
146 -3 182 -22 255 -94 347 -400 626 -756 689 -69 13 -255 12 -338 0z m391
-244 c111 -36 195 -89 291 -185 129 -129 188 -245 210 -414 14 -98 2 -239 -25
-321 -43 -127 -75 -177 -185 -287 -93 -94 -118 -113 -192 -148 -113 -53 -200
-72 -328 -72 -192 -1 -340 58 -483 192 -93 87 -162 187 -202 291 -24 64 -28
93 -33 212 -4 110 -1 152 13 210 66 273 327 514 594 547 105 13 253 2 340 -25z"/>
<path d="M1615 2605 c-373 -67 -612 -406 -692 -980 -24 -172 -24 -487 0 -575
31 -118 83 -207 166 -290 103 -102 215 -157 375 -185 21 -3 518 -6 1105 -6
1195 0 1144 -3 1300 72 66 32 103 59 157 113 82 82 113 128 157 234 l32 77 -1
255 c0 219 -4 272 -23 375 -64 350 -149 541 -316 711 -78 79 -103 97 -185 137
-117 56 -178 70 -301 71 l-96 1 -104 -65 c-157 -97 -295 -166 -395 -196 -79
-25 -104 -28 -234 -28 -130 0 -154 3 -235 28 -108 33 -201 79 -354 175 -63 39
-131 75 -150 81 -47 13 -119 11 -206 -5z m284 -298 c252 -152 435 -210 656
-210 142 0 210 11 364 60 93 29 143 54 279 136 177 106 187 110 283 88 245
-55 404 -283 481 -690 20 -100 23 -150 23 -361 l0 -245 -34 -63 c-41 -76 -118
-148 -198 -187 l-58 -29 -270 -7 c-360 -9 -1698 -9 -1855 0 -92 6 -140 14
-183 30 -116 45 -207 146 -244 271 -35 118 -11 486 46 711 65 260 179 442 320
518 70 37 195 73 231 65 14 -3 85 -42 159 -87z"/>
</g>
</svg>
