<?xml version="1.0" standalone="no"?>
<!DOCTYPE svg PUBLIC "-//W3C//DTD SVG 20010904//EN"
 "http://www.w3.org/TR/2001/REC-SVG-20010904/DTD/svg10.dtd">
<svg version="1.0" xmlns="http://www.w3.org/2000/svg"
 width="24px" height="24px" viewBox="0 0 512.000000 512.000000"
 preserveAspectRatio="xMidYMid meet">

<g transform="translate(0.000000,512.000000) scale(0.100000,-0.100000)"
fill="#000000" stroke="none">
<path d="M1285 4544 c-99 -9 -165 -29 -259 -77 -178 -91 -280 -192 -371 -368
-85 -164 -79 -49 -82 -1469 -3 -763 0 -1303 6 -1361 27 -276 232 -539 502
-644 157 -62 93 -60 1454 -57 771 1 1275 6 1334 12 335 37 635 344 671 687 8
65 10 517 8 1363 -4 1420 2 1305 -83 1469 -90 174 -192 276 -366 366 -165 85
-46 79 -1489 81 -707 0 -1303 -1 -1325 -2z m1550 -565 c257 -52 503 -186 691
-377 203 -206 324 -434 380 -717 23 -111 25 -364 5 -475 -30 -171 -117 -385
-215 -533 -111 -166 -323 -360 -483 -441 -67 -33 -73 -33 -67 7 30 230 35 250
57 266 68 48 195 173 252 249 157 209 229 422 228 677 0 189 -34 337 -114 499
-310 622 -1096 820 -1664 418 -433 -306 -592 -898 -371 -1378 72 -156 204
-323 334 -424 l70 -54 16 -111 c9 -60 19 -128 22 -149 7 -47 5 -47 -110 22
-326 195 -572 538 -646 900 -146 720 290 1419 1005 1607 169 45 425 50 610 14z
m-100 -458 c331 -68 591 -308 692 -638 24 -79 27 -103 27 -243 0 -140 -3 -164
-28 -244 -34 -114 -101 -243 -168 -325 l-52 -65 -17 72 c-10 39 -30 101 -45
138 l-27 67 23 46 c139 283 81 597 -147 800 -68 61 -184 123 -273 146 -83 22
-225 22 -314 1 -255 -61 -456 -284 -496 -550 -19 -127 0 -241 62 -378 l30 -66
-27 -67 c-14 -36 -34 -98 -44 -137 l-17 -72 -52 65 c-67 82 -134 211 -168 325
-25 80 -28 104 -28 244 0 140 3 164 28 245 138 454 589 729 1041 636z m-18
-492 c69 -33 134 -98 167 -169 17 -36 21 -64 21 -145 0 -90 -3 -105 -27 -152
-43 -82 -84 -120 -169 -162 l-79 -38 43 -12 c148 -44 268 -178 297 -331 12
-61 8 -107 -41 -483 -33 -261 -48 -307 -116 -367 -55 -48 -106 -60 -256 -60
-192 1 -255 28 -307 134 -27 55 -33 89 -64 336 -51 404 -50 390 -31 461 38
149 150 268 292 310 l43 12 -79 38 c-85 42 -126 80 -169 162 -24 47 -27 62
-27 152 0 116 16 160 83 235 103 117 273 149 419 79z"/>
</g>
</svg>
