<?xml version="1.0" standalone="no"?>
<!DOCTYPE svg PUBLIC "-//W3C//DTD SVG 20010904//EN"
 "http://www.w3.org/TR/2001/REC-SVG-20010904/DTD/svg10.dtd">
<svg version="1.0" xmlns="http://www.w3.org/2000/svg"
 width="24px" height="24px" viewBox="0 0 512.000000 512.000000"
 preserveAspectRatio="xMidYMid meet">

<g transform="translate(0.000000,512.000000) scale(0.100000,-0.100000)"
fill="#000000" stroke="none">
<path d="M3230 4547 c-121 -28 -159 -77 -197 -250 -7 -35 -14 -41 -63 -62 -52
-22 -57 -23 -80 -7 -108 70 -123 76 -185 80 -81 5 -134 -19 -221 -104 -133
-128 -148 -248 -49 -386 l36 -49 -27 -59 c-26 -57 -28 -59 -73 -66 -114 -16
-193 -68 -225 -146 -24 -56 -22 -269 3 -323 34 -76 104 -118 234 -141 20 -3
37 -7 37 -9 0 -1 11 -27 24 -57 l25 -55 -25 -37 c-78 -114 -93 -199 -53 -284
29 -59 143 -172 201 -200 85 -40 172 -23 293 56 l30 20 57 -25 c50 -22 57 -28
63 -61 22 -129 61 -194 139 -234 35 -18 59 -22 156 -22 70 0 130 5 154 13 85
29 143 113 160 232 7 45 9 48 64 72 53 23 59 24 82 9 111 -71 123 -76 180 -80
82 -6 153 28 235 113 85 88 108 137 103 220 -4 62 -7 71 -80 185 -15 23 -14
29 9 81 l25 57 61 12 c124 24 193 75 219 162 16 56 16 221 -1 276 -25 88 -110
148 -232 166 -45 7 -47 9 -72 64 -25 54 -25 58 -10 82 69 105 77 123 81 185 5
83 -20 135 -110 224 -90 90 -140 114 -223 109 -62 -4 -77 -10 -185 -80 -23
-16 -28 -15 -80 7 l-55 23 -17 76 c-10 42 -24 89 -32 105 -21 40 -79 88 -123
101 -61 17 -193 21 -253 7z m225 -283 c36 -152 30 -145 168 -204 67 -28 136
-52 152 -53 21 0 58 17 119 56 50 31 95 57 101 57 14 0 125 -114 125 -128 0
-5 -25 -47 -55 -93 -40 -62 -55 -93 -55 -120 0 -22 21 -86 51 -157 57 -137 51
-131 203 -167 l91 -21 0 -94 0 -95 -98 -21 c-53 -11 -108 -27 -122 -34 -28
-15 -127 -235 -128 -286 -1 -20 17 -59 57 -121 46 -74 56 -95 48 -110 -12 -21
-107 -113 -118 -113 -4 0 -46 24 -93 54 -47 30 -96 57 -108 60 -14 5 -45 -2
-85 -19 -35 -14 -88 -35 -118 -47 -93 -35 -105 -51 -135 -188 l-20 -95 -92 -3
-91 -3 -10 33 c-6 18 -18 67 -27 109 -12 57 -22 82 -43 101 -37 34 -258 121
-286 112 -11 -4 -60 -31 -108 -61 -69 -42 -91 -52 -106 -44 -32 17 -114 112
-109 125 3 8 28 49 55 93 74 118 74 102 -2 282 -48 113 -62 127 -155 146 -42
9 -91 21 -109 27 l-33 10 3 90 3 91 115 28 c64 16 120 35 126 44 6 8 35 72 63
141 36 86 50 132 45 147 -4 12 -29 57 -56 100 -27 44 -52 85 -55 93 -5 15 103
134 122 134 7 0 50 -25 96 -55 62 -40 93 -55 120 -55 22 0 86 21 157 51 138
58 139 59 167 199 9 46 19 88 22 93 2 4 46 6 96 5 l91 -3 21 -91z"/>
<path d="M3233 3805 c-184 -40 -332 -200 -364 -393 -42 -254 143 -506 400
-544 316 -47 593 232 542 545 -16 101 -62 189 -135 262 -73 73 -142 111 -233
130 -82 18 -129 18 -210 0z m255 -224 c71 -49 119 -119 127 -186 12 -92 -1
-158 -43 -214 -20 -27 -57 -63 -83 -81 -42 -28 -58 -33 -132 -37 -74 -5 -91
-3 -131 16 -60 30 -142 120 -157 174 -6 23 -9 75 -7 115 4 61 10 80 37 120 36
52 104 108 148 122 15 5 65 8 110 7 74 -3 87 -7 131 -36z"/>
<path d="M1784 3450 c-26 -10 -44 -52 -64 -149 l-15 -74 -86 -35 -86 -35 -59
40 c-109 74 -142 87 -219 88 -89 0 -137 -26 -251 -139 -105 -104 -128 -148
-128 -241 0 -77 14 -113 87 -218 l40 -58 -34 -85 c-28 -70 -38 -86 -59 -90
-298 -64 -343 -113 -344 -375 l-1 -136 35 -69 c45 -88 88 -116 229 -147 l104
-24 34 -86 35 -86 -40 -58 c-73 -108 -86 -141 -86 -218 0 -93 23 -135 133
-246 111 -110 153 -133 246 -133 77 0 110 13 218 86 l58 40 86 -35 86 -34 23
-103 c27 -118 57 -176 111 -212 67 -44 109 -53 248 -52 237 1 304 53 355 279
l21 90 85 34 85 33 57 -40 c104 -72 140 -86 217 -86 93 0 134 22 245 132 97
96 129 149 137 226 7 73 -10 125 -73 218 l-56 81 32 76 c18 42 36 81 41 87 5
6 37 17 72 24 34 6 81 20 104 30 35 15 43 24 48 53 14 73 -23 117 -96 117 -59
0 -205 -27 -238 -45 -39 -19 -56 -44 -80 -110 -13 -33 -38 -95 -57 -138 -19
-43 -34 -89 -34 -103 0 -15 32 -75 75 -141 41 -64 75 -123 75 -131 0 -8 -38
-52 -84 -98 -60 -60 -90 -84 -108 -84 -14 0 -73 31 -133 70 -67 43 -119 70
-136 70 -15 0 -74 -20 -131 -43 -56 -24 -124 -52 -151 -61 -58 -22 -71 -44
-98 -169 -38 -176 -39 -177 -179 -177 -116 0 -136 10 -155 73 -8 28 -15 57
-15 64 0 8 -7 45 -16 83 -19 86 -42 109 -142 145 -42 16 -103 41 -134 57 -85
42 -113 38 -208 -27 -98 -67 -133 -85 -161 -85 -29 0 -179 150 -179 179 0 28
18 63 85 161 64 94 68 124 30 201 -14 28 -39 86 -55 129 -16 43 -35 88 -42 99
-17 28 -60 47 -138 61 -36 6 -88 17 -116 25 -68 19 -77 41 -72 175 4 120 5
122 117 145 189 41 209 52 237 139 9 28 34 91 55 139 22 48 39 101 39 117 0
18 -20 59 -56 112 -69 102 -84 131 -84 158 0 43 165 195 198 183 9 -4 65 -37
124 -75 59 -38 118 -68 132 -68 14 0 65 17 113 39 48 21 99 42 113 46 70 21
108 47 124 83 37 84 58 271 33 303 -27 35 -78 48 -123 29z"/>
<path d="M1912 2730 c-130 -34 -222 -90 -322 -197 -113 -119 -167 -248 -176
-418 -16 -279 128 -520 381 -642 187 -89 428 -81 608 19 199 112 329 313 344
530 7 99 -3 126 -57 148 -28 12 -36 11 -64 -4 -40 -21 -66 -64 -66 -108 -1
-129 -95 -293 -212 -371 -92 -60 -160 -80 -268 -80 -108 0 -176 20 -268 80
-138 91 -224 270 -208 431 13 121 75 245 164 322 75 67 203 119 290 120 44 0
87 26 108 66 15 27 16 36 4 63 -7 18 -22 38 -34 46 -29 21 -135 18 -224 -5z"/>
</g>
</svg>
