<?xml version="1.0" standalone="no"?>
<!DOCTYPE svg PUBLIC "-//W3C//DTD SVG 20010904//EN"
 "http://www.w3.org/TR/2001/REC-SVG-20010904/DTD/svg10.dtd">
<svg version="1.0" xmlns="http://www.w3.org/2000/svg"
 width="512.000000pt" height="512.000000pt" viewBox="0 0 512.000000 512.000000"
 preserveAspectRatio="xMidYMid meet">

<g transform="translate(0.000000,512.000000) scale(0.100000,-0.100000)"
fill="#000000" stroke="none">
<path d="M2355 4684 c-965 -104 -1729 -815 -1896 -1764 -26 -148 -36 -418 -20
-571 41 -391 183 -757 414 -1065 334 -444 818 -737 1373 -831 150 -25 524 -25
669 0 465 82 849 278 1171 601 615 617 794 1525 460 2328 -108 259 -256 479
-460 684 -321 322 -709 521 -1166 599 -92 16 -455 28 -545 19z m650 -789 c86
-195 160 -355 164 -355 3 1 66 104 140 231 73 126 137 231 141 234 4 2 16 -2
26 -10 20 -13 20 -16 -8 -292 -16 -153 -27 -285 -26 -294 2 -13 51 7 231 94
226 110 228 110 248 91 19 -20 18 -21 -136 -229 -85 -116 -155 -213 -155 -217
0 -5 4 -8 10 -8 13 0 524 -90 526 -93 1 -1 5 -16 8 -32 l7 -31 -251 -59 c-137
-33 -249 -63 -247 -67 1 -4 120 -95 265 -202 242 -181 262 -198 262 -226 0
-16 -4 -30 -9 -30 -6 0 -137 47 -292 105 -155 58 -286 104 -291 103 -4 -2 87
-178 203 -392 200 -369 210 -390 199 -417 -7 -16 -16 -29 -20 -29 -3 0 -131
142 -283 315 -160 183 -277 308 -277 298 0 -10 32 -255 70 -543 39 -288 70
-532 70 -540 0 -9 -13 -26 -30 -38 l-29 -22 -177 537 c-97 296 -180 541 -183
545 -4 5 -140 -306 -302 -690 l-295 -697 -33 -3 c-18 -2 -38 -1 -45 1 -9 4 28
203 139 744 84 406 151 740 149 741 -1 2 -344 -183 -762 -412 -417 -228 -765
-418 -773 -421 -8 -3 -23 9 -38 31 -24 35 -24 35 -5 53 10 10 302 254 649 542
519 433 625 525 605 527 -14 2 -362 40 -775 86 l-750 83 3 43 c2 24 4 45 5 46
1 1 333 29 737 63 404 34 742 63 750 64 7 1 -224 138 -515 305 -292 166 -537
306 -545 312 -12 8 -10 14 14 38 l28 30 596 -199 c328 -110 600 -198 604 -197
3 2 -128 173 -293 381 -164 208 -299 379 -299 381 0 2 13 9 30 14 29 10 40 2
427 -308 218 -176 398 -318 400 -316 2 1 -13 143 -32 315 -43 380 -42 371 -11
371 22 0 38 -31 181 -355z"/>
</g>
</svg>
