<svg xmlns="http://www.w3.org/2000/svg" width="24" height="24" viewBox="0 0 2048 2048" preserveAspectRatio="xMidYMid meet">

  <!-- Толстая внешняя окружность -->
  <path
    d="M 991.58 214.424 C 1011.58 211.775 1049.78 214.43 1070.58 215.59 C 1241.52 225.41 1404.45 291.368 1534.08 403.233 C 1688.01 533.76 1783.4 720.381 1799.04 921.592 C 1814.83 1119.6 1751.42 1315.79 1622.72 1467.09 C 1512.71 1595.44 1362.8 1683.14 1197.02 1716.14 C 1153.44 1724.91 1115.24 1728.35 1071.24 1731.7 C 1039.62 1733.8 992.002 1731.94 960.64 1729.05 C 796.589 1714.58 641.455 1648.06 517.89 1539.19 C 368.786 1408.37 277.053 1224.21 262.465 1026.39 C 249.409 822.516 307.58 629.909 443.42 475.959 C 559.884 342.894 718.754 254.163 893.132 224.79 C 928.633 218.727 956.166 216.64 991.58 214.424 z M 1084.76 1701.18 C 1282.82 1687.78 1458.96 1606.38 1592.23 1457.23 C 1713.48 1321.52 1783.49 1123.15 1771.29 940.7 C 1759.81 741.407 1667.59 555.404 1515.92 425.622 C 1380.7 309.093 1208.36 244.61 1029.87 243.763 C 1015.7 243.751 992.237 242.581 978.627 244.407 C 940.21 247.267 905.412 251.264 867.555 259.278 C 708.492 293.336 565.071 378.83 459.455 502.549 C 333.585 648.9 277.769 837.02 292.494 1028.53 C 307.408 1219.35 397.074 1396.56 541.982 1521.6 C 691.264 1650.77 885.699 1715.44 1082.61 1701.4 C 1083.33 1701.35 1084.04 1701.27 1084.76 1701.18 z"
    fill="#000"
    stroke="#000"
    stroke-width="120"
    stroke-linejoin="round"/>

  <!-- Внутренний логотип Яндекса -->
  <path
    d="M 1118.46 367.377 L 1128.1 366.442 C 1136.77 382.142 1145.59 402.128 1153.34 418.648 C 1167.17 447.908 1180.79 477.268 1194.19 506.727 C 1215.63 553.719 1239.01 600.952 1259.96 647.948 C 1281.93 602.599 1306.1 557.585 1329.03 512.678 C 1337.09 496.91 1345.67 480.114 1354.65 464.9 C 1359.85 466.495 1368.86 470.539 1374.19 472.759 C 1371.83 525.328 1363.52 579.955 1360.14 632.668 C 1358.88 652.407 1357.29 675.206 1354.43 694.467 C 1373.9 683.888 1393.39 674.828 1413.29 665.1 C 1447.62 648.289 1482.05 631.687 1516.58 615.295 C 1520.82 622.198 1523.58 624.81 1529.2 630.432 C 1493.67 680.748 1457.56 730.657 1420.89 780.148 C 1463.62 787.707 1506.26 795.751 1548.81 804.28 C 1567.32 807.803 1588.32 812.337 1606.84 814.768 C 1608.61 822.499 1610.01 832.028 1611.4 839.956 C 1553.93 854.052 1490.51 867.282 1432.36 879.96 C 1452.97 892.901 1481.88 916.611 1502.01 932.066 L 1623.19 1025.56 C 1622.37 1033.67 1622.16 1038.54 1622.2 1046.7 C 1600.91 1039.94 1575.72 1029.67 1554.34 1021.69 C 1505.4 1003.57 1456.59 985.123 1407.89 966.352 C 1450.91 1047.42 1498.73 1127.09 1543.14 1207.48 C 1549.63 1219.23 1556.43 1231.14 1563.34 1242.64 C 1557.68 1249.35 1553.22 1254.65 1548.22 1261.81 L 1411.43 1108.23 L 1374.17 1066.37 C 1366.27 1057.64 1355.93 1047.12 1349.33 1037.88 C 1354.09 1062.99 1357.99 1098.53 1361.95 1124.94 L 1395.02 1348.39 C 1398.97 1374.34 1403.71 1418.26 1409.25 1442.33 C 1400.88 1447.03 1392.75 1452.15 1384.89 1457.67 C 1379.15 1438.21 1369.43 1413.16 1362.66 1393.61 L 1324.66 1282.17 L 1279.63 1150.6 C 1270.1 1122.55 1259.66 1089.78 1249.03 1062.37 C 1228.25 1117.08 1203.17 1174.92 1181.11 1229.64 L 1044.42 1574.17 C 1034 1574.28 1018.18 1572.84 1007.36 1572.14 C 1008.32 1559.66 1013.21 1535.66 1015.53 1522.66 C 1021.74 1488.04 1028.32 1453.48 1035.27 1418.99 C 1051.23 1336.6 1067.85 1254.34 1085.11 1172.22 C 1094.87 1124.69 1105.47 1072.51 1117.45 1025.74 C 1099.7 1036.63 1073.46 1049.95 1054.7 1060.21 C 1013.63 1082.96 972.334 1105.32 930.831 1127.29 L 737.945 1231.6 C 685.3 1259.88 628.87 1288.84 577.252 1318.37 C 571.805 1311.11 566.231 1303.95 560.532 1296.89 C 590.907 1269.54 625.907 1241.12 657.334 1214.63 L 808.505 1086.5 L 931.16 982.458 C 954.171 963.048 981.626 938.947 1005.6 921.401 C 982.338 917.006 942.158 913.795 917.527 911.168 L 766.277 894.956 L 557.423 872.827 C 519.722 868.636 477.22 862.619 439.966 859.505 C 442.102 848.819 443.59 841.035 444.73 830.075 C 456.122 830.178 482.156 826.688 494.268 825.402 L 589.102 815.663 L 849.632 791.663 C 896.381 787.338 947.146 781.352 993.692 778.593 C 983.684 772.13 969.278 764.429 958.576 758.33 L 882.669 715.692 C 790.758 664 697.141 613.751 605.724 561.592 C 609.9 554.316 615.139 546.82 619.835 539.798 C 626.142 542.562 644.709 547.774 652.098 550.057 L 711.009 568.71 L 925.253 637.06 L 999.998 660.691 C 1014.87 665.481 1033.73 671.264 1047.83 677.392 C 1040.31 669.932 1029.95 656.309 1023.07 647.738 L 979.459 593.083 C 926.881 527.559 873.157 459.065 819.39 395.004 C 828.146 391.223 834.1 388.034 842.446 383.455 C 852.23 390.342 875.301 410.641 885.678 419.12 L 978.029 494.141 L 1087.5 582.659 C 1109.31 600.278 1129.82 615.926 1150.87 634.671 C 1139.2 573.711 1130.46 510.884 1119.48 449.701 C 1114.77 423.5 1111.06 394.717 1105.3 368.955 L 1118.46 367.377 z"
    fill="#000"/>
</svg>