<?xml version="1.0" encoding="UTF-8"?>
<!DOCTYPE svg PUBLIC "-//W3C//DTD SVG 1.1//EN" "http://www.w3.org/Graphics/SVG/1.1/DTD/svg11.dtd">
<svg xmlns="http://www.w3.org/2000/svg" version="1.1" width="1024px" height="1024px" style="shape-rendering:geometricPrecision; text-rendering:geometricPrecision; image-rendering:optimizeQuality; fill-rule:evenodd; clip-rule:evenodd" xmlns:xlink="http://www.w3.org/1999/xlink">
<g><path style="opacity:1" fill="#43443d" d="M 495.5,103.5 C 496.833,104.167 496.833,104.167 495.5,103.5 Z"/></g>
<g><path style="opacity:1" fill="#43443d" d="M 520.5,103.5 C 521.833,104.167 521.833,104.167 520.5,103.5 Z"/></g>
<g><path style="opacity:1" fill="#43443d" d="M 487.5,104.5 C 488.833,105.167 488.833,105.167 487.5,104.5 Z"/></g>
<g><path style="opacity:1" fill="#3d4443" d="M 529.5,104.5 C 530.833,105.167 530.833,105.167 529.5,104.5 Z"/></g>
<g><path style="opacity:1" fill="#434443" d="M 531.5,104.5 C 532.833,105.167 532.833,105.167 531.5,104.5 Z"/></g>
<g><path style="opacity:1" fill="#434241" d="M 538.5,107.5 C 519.5,107.5 500.5,107.5 481.5,107.5C 481.167,107.5 480.833,107.5 480.5,107.5C 500.049,104.976 519.382,104.976 538.5,107.5 Z"/></g>
<g><path style="opacity:1" fill="#434443" d="M 559.5,106.5 C 560.833,107.167 560.833,107.167 559.5,106.5 Z"/></g>
<g><path style="opacity:1" fill="#3d3e3d" d="M 561.5,106.5 C 562.833,107.167 562.833,107.167 561.5,106.5 Z"/></g>
<g><path style="opacity:1" fill="#0e0e0e" d="M 481.5,107.5 C 500.5,107.5 519.5,107.5 538.5,107.5C 543.562,107.274 548.562,107.608 553.5,108.5C 557.943,109.801 562.609,110.468 567.5,110.5C 565.866,111.161 564.033,111.494 562,111.5C 535.059,109.201 508.225,107.868 481.5,107.5 Z"/></g>
<g><path style="opacity:1" fill="#202020" d="M 469.5,108.5 C 472.962,107.518 476.629,107.185 480.5,107.5C 480.833,107.5 481.167,107.5 481.5,107.5C 508.225,107.868 535.059,109.201 562,111.5C 564.033,111.494 565.866,111.161 567.5,110.5C 567.833,110.5 568.167,110.5 568.5,110.5C 570.735,110.205 572.735,110.539 574.5,111.5C 572.473,111.338 570.473,111.505 568.5,112C 583.316,114.463 597.983,117.63 612.5,121.5C 613.167,121.333 613.833,121.167 614.5,121C 613.584,120.722 612.918,120.222 612.5,119.5C 614.806,119.993 617.139,120.326 619.5,120.5C 627.615,123.537 635.948,126.204 644.5,128.5C 650.874,131.679 657.54,134.346 664.5,136.5C 675.975,142.403 687.641,148.07 699.5,153.5C 708.833,159.5 718.167,165.5 727.5,171.5C 727.973,172.906 728.973,173.573 730.5,173.5C 732.517,174.529 734.517,175.529 736.5,176.5C 743.282,182.064 750.282,187.398 757.5,192.5C 764.274,198.727 771.274,204.727 778.5,210.5C 779.5,212.167 780.833,213.5 782.5,214.5C 782.833,215.5 783.5,216.167 784.5,216.5C 784.833,217.5 785.5,218.167 786.5,218.5C 790.167,222.833 794.167,226.833 798.5,230.5C 799.167,231.833 800.167,232.833 801.5,233.5C 808.154,242.151 815.154,250.484 822.5,258.5C 825.453,263.45 828.786,268.117 832.5,272.5C 835.686,278.218 839.352,283.552 843.5,288.5C 844.383,291.704 846.05,294.371 848.5,296.5C 854.229,306.956 859.729,317.623 865,328.5C 869.428,339.308 873.928,349.975 878.5,360.5C 883.851,376.555 888.185,392.888 891.5,409.5C 890.71,408.391 890.21,407.058 890,405.5C 891.116,415.867 892.783,426.2 895,436.5C 895.497,434.19 895.663,431.857 895.5,429.5C 896.617,433.295 897.283,437.295 897.5,441.5C 896.71,440.391 896.21,439.058 896,437.5C 896.387,449.157 897.054,460.824 898,472.5C 899.193,502.413 897.026,532.08 891.5,561.5C 891.623,562.925 891.957,564.258 892.5,565.5C 890.755,575.227 888.755,584.893 886.5,594.5C 883.258,602.226 880.591,610.226 878.5,618.5C 869.582,642.02 858.582,665.02 845.5,687.5C 830.869,709.728 814.536,730.728 796.5,750.5C 775.928,770.421 753.928,788.421 730.5,804.5C 720.464,810.515 710.464,816.515 700.5,822.5C 694.825,824.606 689.491,827.272 684.5,830.5C 672.198,835.314 659.865,840.147 647.5,845C 638.614,847.971 629.614,850.471 620.5,852.5C 620.918,851.778 621.584,851.278 622.5,851C 600.73,855.603 578.73,859.27 556.5,862C 531.345,863.758 506.178,863.925 481,862.5C 479.167,862.667 477.333,862.833 475.5,863C 477.058,863.21 478.391,863.71 479.5,864.5C 474.306,864.259 469.306,863.593 464.5,862.5C 467.85,862.665 471.183,862.498 474.5,862C 461.822,860.046 449.156,858.379 436.5,857C 438.058,857.21 439.391,857.71 440.5,858.5C 433.677,857.802 427.011,856.469 420.5,854.5C 418.562,852.837 416.228,852.171 413.5,852.5C 412.209,852.263 411.209,852.596 410.5,853.5C 406.107,853.543 405.774,853.043 409.5,852C 408.099,851.59 406.766,851.09 405.5,850.5C 404.791,849.596 403.791,849.263 402.5,849.5C 401.761,849.369 401.094,849.536 400.5,850C 401.696,850.654 401.696,851.154 400.5,851.5C 399.614,850.675 399.281,849.675 399.5,848.5C 386.684,844.562 374.018,840.228 361.5,835.5C 358.164,833.269 354.497,831.603 350.5,830.5C 346.818,827.992 342.818,825.992 338.5,824.5C 336.151,822.659 333.485,821.326 330.5,820.5C 322.368,815.263 314.035,810.263 305.5,805.5C 303.178,803.336 300.511,801.669 297.5,800.5C 295.23,798.025 292.563,796.025 289.5,794.5C 279.16,786.492 268.827,778.492 258.5,770.5C 256.582,767.005 253.915,765.171 250.5,765C 250.833,764.667 251.167,764.333 251.5,764C 249.63,761.96 247.63,760.127 245.5,758.5C 244.5,756.833 243.167,755.5 241.5,754.5C 238.755,751.084 236.088,748.418 233.5,746.5C 232.876,744.246 231.543,742.579 229.5,741.5C 229.5,740.833 229.167,740.5 228.5,740.5C 226.167,737.5 223.5,734.833 220.5,732.5C 219.92,730.251 218.587,728.585 216.5,727.5C 212.209,721.208 207.542,715.208 202.5,709.5C 202.573,707.973 201.906,706.973 200.5,706.5C 200.244,704.224 198.91,703.057 196.5,703C 196.833,702.667 197.167,702.333 197.5,702C 196.5,701.667 195.5,701.333 194.5,701C 195.774,700.023 195.774,699.189 194.5,698.5C 193.277,694.951 191.277,691.951 188.5,689.5C 188.25,687.326 187.25,685.659 185.5,684.5C 183.668,680.164 181.335,676.164 178.5,672.5C 178.672,671.508 178.338,670.842 177.5,670.5C 176.013,667.527 174.513,664.527 173,661.5C 172.333,660.167 171.667,660.167 171,661.5C 170.315,655.765 168.148,650.431 164.5,645.5C 164.008,643.181 163.008,641.181 161.5,639.5C 160.925,636.088 159.592,633.088 157.5,630.5C 157.371,628.784 157.038,627.117 156.5,625.5C 156.672,624.508 156.338,623.842 155.5,623.5C 155.5,622.833 155.167,622.5 154.5,622.5C 152.829,617.155 151.163,611.822 149.5,606.5C 149.737,605.209 149.404,604.209 148.5,603.5C 148.167,603.5 147.833,603.5 147.5,603.5C 147.405,601.214 146.738,599.214 145.5,597.5C 142.58,585.901 139.913,574.234 137.5,562.5C 138.222,562.918 138.722,563.584 139,564.5C 127.898,504.143 129.731,444.143 144.5,384.5C 144.333,383.833 144.167,383.167 144,382.5C 143.768,383.737 143.268,384.737 142.5,385.5C 143.008,381.803 143.674,378.136 144.5,374.5C 155.645,338.211 171.645,304.211 192.5,272.5C 194.522,270.469 196.189,268.135 197.5,265.5C 200.185,262.81 202.518,259.81 204.5,256.5C 211.728,248.392 218.728,240.058 225.5,231.5C 229.824,226.875 234.157,222.208 238.5,217.5C 248.474,208.529 258.474,199.529 268.5,190.5C 273.409,187.926 277.742,184.592 281.5,180.5C 288.049,177.116 293.882,172.783 299,167.5C 299.333,167.833 299.667,168.167 300,168.5C 303.651,166.267 307.151,163.934 310.5,161.5C 311.167,161.5 311.5,161.167 311.5,160.5C 316.45,158.116 320.95,155.782 325,153.5C 328.99,151.088 333.157,149.088 337.5,147.5C 339.819,147.008 341.819,146.008 343.5,144.5C 346.833,142.5 350.167,140.5 353.5,138.5C 355.553,138.598 357.22,137.931 358.5,136.5C 362.901,135.594 366.901,133.928 370.5,131.5C 383.643,126.897 396.976,122.897 410.5,119.5C 410.082,120.222 409.416,120.722 408.5,121C 420.2,119.162 431.866,116.828 443.5,114C 455.799,112.088 468.133,110.421 480.5,109C 476.848,108.501 473.182,108.335 469.5,108.5 Z M 525.5,121.5 C 561.328,123.415 596.328,129.749 630.5,140.5C 631.715,142.788 633.381,143.455 635.5,142.5C 662.01,152.249 687.677,164.582 712.5,179.5C 712.973,180.906 713.973,181.573 715.5,181.5C 745.206,200.438 772.206,224.105 796.5,252.5C 794.24,253.238 794.073,254.238 796,255.5C 796.717,254.956 797.217,254.289 797.5,253.5C 799.727,254.401 800.727,256.067 800.5,258.5C 799.537,259.363 799.537,260.03 800.5,260.5C 801.298,260.043 801.631,259.376 801.5,258.5C 807.594,264.926 812.927,271.926 817.5,279.5C 816.624,279.369 815.957,279.702 815.5,280.5C 815.97,281.463 816.637,281.463 817.5,280.5C 818.778,280.782 819.778,281.449 820.5,282.5C 820.427,284.027 821.094,285.027 822.5,285.5C 823.6,286.605 824.267,287.938 824.5,289.5C 823.957,289.56 823.624,289.893 823.5,290.5C 824.325,291.386 825.325,291.719 826.5,291.5C 826.5,291.833 826.5,292.167 826.5,292.5C 824.354,292.696 824.188,293.696 826,295.5C 827,294.167 828,294.167 829,295.5C 830.942,299.069 833.108,302.402 835.5,305.5C 832.742,306.967 833.075,307.633 836.5,307.5C 834.066,308.52 834.066,309.853 836.5,311.5C 837.107,311.376 837.44,311.043 837.5,310.5C 839.341,312.849 840.674,315.515 841.5,318.5C 841.557,319.609 841.89,320.609 842.5,321.5C 842.393,323.379 842.893,323.712 844,322.5C 844.717,323.044 845.217,323.711 845.5,324.5C 845.19,325.738 844.69,325.738 844,324.5C 843.667,326.934 844.834,327.934 847.5,327.5C 853.446,340.917 859.112,354.917 864.5,369.5C 868.124,380.067 871.457,391.067 874.5,402.5C 874.279,403.735 873.612,404.735 872.5,405.5C 873.098,406.795 873.598,408.128 874,409.5C 874.21,407.942 874.71,406.609 875.5,405.5C 877.506,415.862 879.506,426.196 881.5,436.5C 881.481,443.531 880.981,443.864 880,437.5C 879.788,440.332 879.621,442.998 879.5,445.5C 879.808,446.308 880.308,446.975 881,447.5C 881.21,445.942 881.71,444.609 882.5,443.5C 884.206,462.622 885.206,481.622 885.5,500.5C 884.793,509.265 883.793,518.098 882.5,527C 882.728,527.399 883.062,527.565 883.5,527.5C 881.465,538.072 879.799,548.739 878.5,559.5C 860.57,643.745 818.903,713.412 753.5,768.5C 751.797,767.34 751.131,768.007 751.5,770.5C 722.701,792.553 691.701,810.387 658.5,824C 648.701,827.878 638.701,831.045 628.5,833.5C 626.221,834.651 623.888,835.651 621.5,836.5C 618.933,836.721 616.599,837.388 614.5,838.5C 614.167,838.5 613.833,838.5 613.5,838.5C 610.933,838.721 608.599,839.388 606.5,840.5C 601.291,841.058 596.291,842.058 591.5,843.5C 587.426,843.782 583.426,844.448 579.5,845.5C 569.019,846.768 558.686,848.101 548.5,849.5C 543.105,849.267 537.772,849.6 532.5,850.5C 532.5,849.833 532.167,849.5 531.5,849.5C 514.997,850.557 498.33,850.557 481.5,849.5C 480.469,848.751 479.302,848.085 478,847.5C 473.562,847.996 468.729,847.996 463.5,847.5C 453.888,845.712 444.221,844.045 434.5,842.5C 374.356,828.428 320.356,801.428 272.5,761.5C 272.027,760.094 271.027,759.427 269.5,759.5C 268.167,757.5 266.5,755.833 264.5,754.5C 263.738,752.738 262.404,751.738 260.5,751.5C 205.606,698.733 169.606,635.066 152.5,560.5C 150.405,547.169 148.405,533.835 146.5,520.5C 146.086,508.332 145.419,496.332 144.5,484.5C 145.183,455.691 148.516,427.024 154.5,398.5C 176.967,309.218 225.967,238.385 301.5,186C 340.543,159.96 382.543,141.46 427.5,130.5C 444.861,127.164 462.194,124.497 479.5,122.5C 494.826,121.891 510.159,121.558 525.5,121.5 Z M 304.5,282.5 C 306.027,282.427 307.027,283.094 307.5,284.5C 306.833,284.5 306.167,284.5 305.5,284.5C 305.167,283.833 304.833,283.167 304.5,282.5 Z M 841.5,318.5 C 843.382,319.221 843.715,320.221 842.5,321.5C 841.89,320.609 841.557,319.609 841.5,318.5 Z M 490.5,386.5 C 491.609,386.557 492.609,386.89 493.5,387.5C 492.053,388.885 491.053,388.552 490.5,386.5 Z M 554.5,515.5 C 554.842,514.662 555.508,514.328 556.5,514.5C 556.768,516.099 556.434,517.432 555.5,518.5C 555.737,517.209 555.404,516.209 554.5,515.5 Z"/></g>
<g><path style="opacity:1" fill="#595858" d="M 553.5,108.5 C 558.75,108.302 563.75,108.969 568.5,110.5C 568.167,110.5 567.833,110.5 567.5,110.5C 562.609,110.468 557.943,109.801 553.5,108.5 Z"/></g>
<g><path style="opacity:1" fill="#3d3e3d" d="M 443.5,109.5 C 444.833,110.167 444.833,110.167 443.5,109.5 Z"/></g>
<g><path style="opacity:1" fill="#433e3d" d="M 579.5,109.5 C 580.833,110.167 580.833,110.167 579.5,109.5 Z"/></g>
<g><path style="opacity:1" fill="#3d3e3d" d="M 421.5,111.5 C 422.833,112.167 422.833,112.167 421.5,111.5 Z"/></g>
<g><path style="opacity:1" fill="#3d3e3d" d="M 426.5,111.5 C 427.833,112.167 427.833,112.167 426.5,111.5 Z"/></g>
<g><path style="opacity:1" fill="#3e403f" d="M 431.5,112.5 C 432.251,111.427 433.251,111.26 434.5,112C 433.552,112.483 432.552,112.649 431.5,112.5 Z"/></g>
<g><path style="opacity:1" fill="#3d3e3d" d="M 586.5,111.5 C 587.833,112.167 587.833,112.167 586.5,111.5 Z"/></g>
<g><path style="opacity:1" fill="#3d3e3d" d="M 592.5,111.5 C 593.833,112.167 593.833,112.167 592.5,111.5 Z"/></g>
<g><path style="opacity:1" fill="#3d3e3d" d="M 428.5,112.5 C 429.833,113.167 429.833,113.167 428.5,112.5 Z"/></g>
<g><path style="opacity:1" fill="#595959" d="M 585.5,113.5 C 583.585,113.784 581.919,113.451 580.5,112.5C 582.144,112.714 583.644,112.38 585,111.5C 585.464,112.094 585.631,112.761 585.5,113.5 Z"/></g>
<g><path style="opacity:1" fill="#3d3e3d" d="M 597.5,113.5 C 598.833,114.167 598.833,114.167 597.5,113.5 Z"/></g>
<g><path style="opacity:1" fill="#43443d" d="M 419.5,114.5 C 420.833,115.167 420.833,115.167 419.5,114.5 Z"/></g>
<g><path style="opacity:1" fill="#3d3e3d" d="M 601.5,114.5 C 602.833,115.167 602.833,115.167 601.5,114.5 Z"/></g>
<g><path style="opacity:1" fill="#3d3e3d" d="M 607.5,114.5 C 608.833,115.167 608.833,115.167 607.5,114.5 Z"/></g>
<g><path style="opacity:1" fill="#433e3d" d="M 415.5,115.5 C 416.833,116.167 416.833,116.167 415.5,115.5 Z"/></g>
<g><path style="opacity:1" fill="#1f1f1f" d="M 469.5,108.5 C 473.182,108.335 476.848,108.501 480.5,109C 468.133,110.421 455.799,112.088 443.5,114C 431.866,116.828 420.2,119.162 408.5,121C 409.416,120.722 410.082,120.222 410.5,119.5C 412.042,118.699 413.708,118.366 415.5,118.5C 419.479,118.258 423.146,117.258 426.5,115.5C 440.574,111.774 454.908,109.441 469.5,108.5 Z"/></g>
<g><path style="opacity:1" fill="#232322" d="M 574.5,111.5 C 576.735,111.205 578.735,111.539 580.5,112.5C 581.919,113.451 583.585,113.784 585.5,113.5C 594.848,114.423 603.848,116.423 612.5,119.5C 612.918,120.222 613.584,120.722 614.5,121C 613.833,121.167 613.167,121.333 612.5,121.5C 597.983,117.63 583.316,114.463 568.5,112C 570.473,111.505 572.473,111.338 574.5,111.5 Z"/></g>
<g><path style="opacity:1" fill="#434142" d="M 426.5,115.5 C 423.146,117.258 419.479,118.258 415.5,118.5C 418.854,116.742 422.521,115.742 426.5,115.5 Z"/></g>
<g><path style="opacity:1" fill="#3d3e3d" d="M 610.5,116.5 C 611.833,117.167 611.833,117.167 610.5,116.5 Z"/></g>
<g><path style="opacity:1" fill="#3d3b3b" d="M 619.5,120.5 C 620.601,119.402 621.934,119.235 623.5,120C 622.207,120.49 620.873,120.657 619.5,120.5 Z"/></g>
<g><path style="opacity:1" fill="#3d3e3d" d="M 628.5,120.5 C 628.897,119.475 629.563,119.308 630.5,120C 629.906,120.464 629.239,120.631 628.5,120.5 Z"/></g>
<g><path style="opacity:1" fill="#1d1d1d" d="M 525.5,120.5 C 509.967,120.161 494.633,120.827 479.5,122.5C 462.194,124.497 444.861,127.164 427.5,130.5C 425.653,130.766 424.986,130.432 425.5,129.5C 446.48,124.071 467.814,120.905 489.5,120C 505.529,119.176 517.529,119.343 525.5,120.5 Z"/></g>
<g><path style="opacity:1" fill="#535253" d="M 525.5,120.5 C 525.5,120.833 525.5,121.167 525.5,121.5C 510.159,121.558 494.826,121.891 479.5,122.5C 494.633,120.827 509.967,120.161 525.5,120.5 Z"/></g>
<g><path style="opacity:1" fill="#3d3e3d" d="M 630.5,122.5 C 631.833,123.167 631.833,123.167 630.5,122.5 Z"/></g>
<g><path style="opacity:1" fill="#3d3e3d" d="M 536.5,123.5 C 539.001,123.511 539.168,124.178 537,125.5C 536.536,124.906 536.369,124.239 536.5,123.5 Z"/></g>
<g><path style="opacity:1" fill="#42423f" d="M 545.5,125.5 C 546.077,124.227 546.743,124.227 547.5,125.5C 547.03,126.463 546.363,126.463 545.5,125.5 Z"/></g>
<g><path style="opacity:1" fill="#444040" d="M 467.5,126.5 C 468.077,125.227 468.743,125.227 469.5,126.5C 469.03,127.463 468.363,127.463 467.5,126.5 Z"/></g>
<g><path style="opacity:1" fill="#3d3e3d" d="M 376.5,127.5 C 377.833,128.167 377.833,128.167 376.5,127.5 Z"/></g>
<g><path style="opacity:1" fill="#413e3d" d="M 644.5,128.5 C 645.251,127.427 646.251,127.26 647.5,128C 646.552,128.483 645.552,128.649 644.5,128.5 Z"/></g>
<g><path style="opacity:1" fill="#403f3e" d="M 369.5,129.5 C 369.897,128.475 370.563,128.308 371.5,129C 370.906,129.464 370.239,129.631 369.5,129.5 Z"/></g>
<g><path style="opacity:1" fill="#3d3e3d" d="M 653.5,129.5 C 654.525,129.897 654.692,130.563 654,131.5C 653.536,130.906 653.369,130.239 653.5,129.5 Z"/></g>
<g><path style="opacity:1" fill="#3d3e3d" d="M 367.5,130.5 C 368.833,131.167 368.833,131.167 367.5,130.5 Z"/></g>
<g><path style="opacity:1" fill="#3d3e3d" d="M 370.5,131.5 C 369.833,130.167 369.833,130.167 370.5,131.5 Z"/></g>
<g><path style="opacity:1" fill="#3d3e3d" d="M 352.5,135.5 C 353.833,136.167 353.833,136.167 352.5,135.5 Z"/></g>
<g><path style="opacity:1" fill="#373e37" d="M 358.5,136.5 C 357.833,135.167 357.833,135.167 358.5,136.5 Z"/></g>
<g><path style="opacity:1" fill="#373837" d="M 664.5,135.5 C 665.833,136.167 665.833,136.167 664.5,135.5 Z"/></g>
<g><path style="opacity:1" fill="#3d3837" d="M 353.5,138.5 C 352.833,137.167 352.833,137.167 353.5,138.5 Z"/></g>
<g><path style="opacity:1" fill="#413e3d" d="M 624.5,141.5 C 625.077,140.227 625.743,140.227 626.5,141.5C 626.03,142.463 625.363,142.463 624.5,141.5 Z"/></g>
<g><path style="opacity:1" fill="#313231" d="M 259.5,141.5 C 260.833,142.167 260.833,142.167 259.5,141.5 Z"/></g>
<g><path style="opacity:1" fill="#4f4f4e" d="M 630.5,140.5 C 632.553,140.402 634.22,141.069 635.5,142.5C 633.381,143.455 631.715,142.788 630.5,140.5 Z"/></g>
<g><path style="opacity:1" fill="#3a3c3a" d="M 337.5,144.5 C 336.761,144.631 336.094,144.464 335.5,144C 336.437,143.308 337.103,143.475 337.5,144.5 Z"/></g>
<g><path style="opacity:1" fill="#3d3837" d="M 682.5,143.5 C 683.833,144.167 683.833,144.167 682.5,143.5 Z"/></g>
<g><path style="opacity:1" fill="#3d3e3d" d="M 337.5,144.5 C 338.167,144.5 338.5,144.833 338.5,145.5C 338.167,145.167 337.833,144.833 337.5,144.5 Z"/></g>
<g><path style="opacity:1" fill="#4d4d4e" d="M 343.5,144.5 C 341.819,146.008 339.819,147.008 337.5,147.5C 337.833,146.833 338.167,146.167 338.5,145.5C 340.117,144.962 341.784,144.629 343.5,144.5 Z"/></g>
<g><path style="opacity:1" fill="#3d3e3d" d="M 335.5,145.5 C 336.833,146.167 336.833,146.167 335.5,145.5 Z"/></g>
<g><path style="opacity:1" fill="#3d3e3d" d="M 689.5,146.5 C 690.833,147.167 690.833,147.167 689.5,146.5 Z"/></g>
<g><path style="opacity:1" fill="#3d3e3d" d="M 699.5,152.5 C 700.833,153.167 700.833,153.167 699.5,152.5 Z"/></g>
<g><path style="opacity:1" fill="#3e3d3e" d="M 304.5,159.5 C 305.249,160.531 305.915,161.698 306.5,163C 305.365,163.749 304.365,163.583 303.5,162.5C 304.127,161.583 304.461,160.583 304.5,159.5 Z"/></g>
<g><path style="opacity:1" fill="#3d3e3d" d="M 308.5,160.5 C 307.833,159.167 307.833,159.167 308.5,160.5 Z"/></g>
<g><path style="opacity:1" fill="#3e3c3e" d="M 311.5,160.5 C 310.833,160.5 310.5,160.833 310.5,161.5C 309.508,161.672 308.842,161.338 308.5,160.5C 309.652,159.375 310.652,159.375 311.5,160.5 Z"/></g>
<g><path style="opacity:1" fill="#3d383d" d="M 712.5,159.5 C 713.833,160.167 713.833,160.167 712.5,159.5 Z"/></g>
<g><path style="opacity:1" fill="#3f3f3f" d="M 680.5,163.5 C 681.773,164.077 681.773,164.743 680.5,165.5C 679.537,165.03 679.537,164.363 680.5,163.5 Z"/></g>
<g><path style="opacity:1" fill="#3d3e3d" d="M 287.5,168.5 C 288.833,169.167 288.833,169.167 287.5,168.5 Z"/></g>
<g><path style="opacity:1" fill="#3d3e3d" d="M 729.5,170.5 C 730.833,171.167 730.833,171.167 729.5,170.5 Z"/></g>
<g><path style="opacity:1" fill="#545353" d="M 727.5,171.5 C 728.167,171.5 728.833,171.5 729.5,171.5C 729.833,172.167 730.167,172.833 730.5,173.5C 728.973,173.573 727.973,172.906 727.5,171.5 Z"/></g>
<g><path style="opacity:1" fill="#433e3d" d="M 280.5,175.5 C 281.833,176.167 281.833,176.167 280.5,175.5 Z"/></g>
<g><path style="opacity:1" fill="#3d3837" d="M 736.5,175.5 C 737.833,176.167 737.833,176.167 736.5,175.5 Z"/></g>
<g><path style="opacity:1" fill="#3d3e3d" d="M 280.5,177.5 C 281.833,178.167 281.833,178.167 280.5,177.5 Z"/></g>
<g><path style="opacity:1" fill="#3d3e3d" d="M 280.5,178.5 C 280.5,178.833 280.5,179.167 280.5,179.5C 279.83,179.019 279.83,178.685 280.5,178.5 Z"/></g>
<g><path style="opacity:1" fill="#3d3e3d" d="M 280.5,179.5 C 281.167,179.5 281.5,179.833 281.5,180.5C 281.167,180.167 280.833,179.833 280.5,179.5 Z"/></g>
<g><path style="opacity:1" fill="#595555" d="M 712.5,179.5 C 714.027,179.427 715.027,180.094 715.5,181.5C 713.973,181.573 712.973,180.906 712.5,179.5 Z"/></g>
<g><path style="opacity:1" fill="#515151" d="M 564.5,184.5 C 560.276,183.031 556.276,183.364 552.5,185.5C 551.308,184.434 551.641,183.601 553.5,183C 556.758,182.788 559.924,182.288 563,181.5C 564.039,182.244 564.539,183.244 564.5,184.5 Z"/></g>
<g><path style="opacity:1" fill="#1e1e1f" d="M 564.5,184.5 C 585.667,228.286 606.001,271.453 625.5,314C 626.741,316.563 628.074,319.063 629.5,321.5C 644.392,292.05 659.559,262.717 675,233.5C 675.689,232.643 676.522,231.977 677.5,231.5C 681.312,232.57 684.645,234.404 687.5,237C 687.098,241.057 686.431,245.224 685.5,249.5C 685.665,246.15 685.498,242.817 685,239.5C 682.921,253.951 682.088,268.285 682.5,282.5C 682.493,291.229 681.827,299.896 680.5,308.5C 680.167,308.5 679.833,308.5 679.5,308.5C 677.534,317.745 676.2,329.078 675.5,342.5C 675.667,344.167 675.833,345.833 676,347.5C 676.198,345.618 676.698,343.952 677.5,342.5C 677.833,343.167 678.167,343.833 678.5,344.5C 694.985,337.09 711.318,329.424 727.5,321.5C 728.492,321.672 729.158,321.338 729.5,320.5C 738.773,315.864 748.106,311.197 757.5,306.5C 759.953,309.241 762.286,312.075 764.5,315C 746.446,339.628 728.779,364.461 711.5,389.5C 710.711,389.783 710.044,390.283 709.5,391C 730.621,395.378 751.621,399.211 772.5,402.5C 771.051,401.828 769.718,401.161 768.5,400.5C 769.822,400.67 770.989,400.337 772,399.5C 772.5,400 773,400.5 773.5,401C 783.501,402.9 793.501,404.734 803.5,406.5C 804.092,409.127 804.425,411.794 804.5,414.5C 804.5,416.167 804.5,417.833 804.5,419.5C 801.933,419.721 799.599,420.388 797.5,421.5C 791.665,423.458 785.665,424.791 779.5,425.5C 780.263,424.732 781.263,424.232 782.5,424C 773.682,424.702 765.016,426.369 756.5,429C 757.793,429.49 759.127,429.657 760.5,429.5C 747.415,433.102 734.082,436.102 720.5,438.5C 719.022,438.238 717.689,438.571 716.5,439.5C 716.624,440.107 716.957,440.44 717.5,440.5C 717.833,440.5 718.167,440.5 718.5,440.5C 748.833,463.833 779.167,487.167 809.5,510.5C 810.324,513.764 810.658,517.098 810.5,520.5C 810.5,520.833 810.5,521.167 810.5,521.5C 810.158,522.338 809.492,522.672 808.5,522.5C 774.155,509.83 739.822,497.163 705.5,484.5C 730.288,530.07 755.621,575.403 781.5,620.5C 779.36,623.807 777.026,626.974 774.5,630C 775.647,631.281 775.313,631.614 773.5,631C 756.634,611.972 739.634,593.138 722.5,574.5C 722.5,573.833 722.167,573.5 721.5,573.5C 712.069,562.125 702.736,551.458 693.5,541.5C 693.5,540.833 693.167,540.5 692.5,540.5C 689.49,537.126 686.49,533.792 683.5,530.5C 683.5,529.833 683.167,529.5 682.5,529.5C 682.5,528.833 682.167,528.5 681.5,528.5C 679.5,526.329 677.666,523.996 676,521.5C 675.51,522.793 675.343,524.127 675.5,525.5C 674.835,523.302 674.168,520.969 673.5,518.5C 673.167,519 672.833,519.5 672.5,520C 674.406,532.147 676.239,544.313 678,556.5C 678.497,553.854 678.664,551.187 678.5,548.5C 679.525,551.974 680.192,555.64 680.5,559.5C 679.778,559.082 679.278,558.416 679,557.5C 679.726,570.583 681.392,583.583 684,596.5C 684.497,593.854 684.664,591.187 684.5,588.5C 685.468,590.607 685.802,592.941 685.5,595.5C 685.5,596.167 685.5,596.833 685.5,597.5C 684.844,598.622 684.511,599.955 684.5,601.5C 687,618.166 689.5,634.832 692,651.5C 692.497,649.19 692.663,646.857 692.5,644.5C 694.802,654.599 696.469,664.932 697.5,675.5C 696.71,674.391 696.21,673.058 696,671.5C 696.792,688.547 699.292,705.214 703.5,721.5C 700.025,723.407 696.691,725.574 693.5,728C 692.668,728.688 692.002,728.521 691.5,727.5C 687.898,717.86 684.398,708.194 681,698.5C 680.667,699.5 680.333,700.5 680,701.5C 680.374,696.737 679.541,692.07 677.5,687.5C 677.737,686.209 677.404,685.209 676.5,684.5C 658.852,633.029 641.352,582.362 624,532.5C 590.17,615.809 556.67,699.143 523.5,782.5C 523.649,781.448 523.483,780.448 523,779.5C 522.293,781.081 521.46,782.581 520.5,784C 515.489,784.388 510.489,784.222 505.5,783.5C 506.913,775.868 507.746,768.201 508,760.5C 507.79,762.058 507.29,763.391 506.5,764.5C 508.115,753.091 510.115,741.757 512.5,730.5C 513.434,729.432 513.768,728.099 513.5,726.5C 515.085,716.298 517.085,706.298 519.5,696.5C 520.785,693.411 521.451,690.078 521.5,686.5C 521.5,685.833 521.5,685.167 521.5,684.5C 521.833,684.5 522.167,684.5 522.5,684.5C 522.369,685.239 522.536,685.906 523,686.5C 525.306,678.621 526.64,670.621 527,662.5C 526.79,664.058 526.29,665.391 525.5,666.5C 525.448,664.097 525.781,661.764 526.5,659.5C 526.833,659.5 527.167,659.5 527.5,659.5C 527.369,660.239 527.536,660.906 528,661.5C 530.709,651.963 532.375,642.296 533,632.5C 532.79,634.058 532.29,635.391 531.5,636.5C 533.025,626.069 535.025,615.735 537.5,605.5C 538.404,604.791 538.737,603.791 538.5,602.5C 538.882,597.256 539.882,592.256 541.5,587.5C 541.338,589.527 541.505,591.527 542,593.5C 546.24,574.596 550.073,555.93 553.5,537.5C 552.824,538.602 552.158,539.602 551.5,540.5C 552.835,533.163 554.168,525.829 555.5,518.5C 556.434,517.432 556.768,516.099 556.5,514.5C 555.508,514.328 554.842,514.662 554.5,515.5C 553.508,515.328 552.842,515.662 552.5,516.5C 542.316,521.088 532.649,526.421 523.5,532.5C 493.293,548.77 462.96,564.77 432.5,580.5C 430.973,580.427 429.973,581.094 429.5,582.5C 392.266,602.936 355.266,622.936 318.5,642.5C 317.508,642.328 316.842,642.662 316.5,643.5C 306.931,648.536 297.431,653.869 288,659.5C 285.523,655.396 282.69,651.563 279.5,648C 294.339,635.325 309.006,622.492 323.5,609.5C 324.167,609.5 324.5,609.167 324.5,608.5C 330.083,605.253 335.083,601.253 339.5,596.5C 340.167,596.5 340.5,596.167 340.5,595.5C 342.505,594.746 343.172,593.579 342.5,592C 343.833,591.667 345.167,591.333 346.5,591C 361.026,578.635 375.36,566.135 389.5,553.5C 390.167,553.5 390.5,553.167 390.5,552.5C 392.404,552.262 393.738,551.262 394.5,549.5C 395.167,549.5 395.5,549.167 395.5,548.5C 413.132,534.202 430.466,519.536 447.5,504.5C 448.167,504.5 448.5,504.167 448.5,503.5C 459.919,494.921 470.919,485.755 481.5,476C 480.66,474.334 481.16,474.167 483,475.5C 485.043,473.792 486.71,471.792 488,469.5C 488.333,469.833 488.667,470.167 489,470.5C 491.479,468.034 493.979,465.701 496.5,463.5C 497.833,463.167 497.833,462.833 496.5,462.5C 496.414,461.504 496.748,460.671 497.5,460C 485.654,458.753 473.987,457.253 462.5,455.5C 465.518,455.665 468.518,455.498 471.5,455C 459.231,452.95 446.898,451.95 434.5,452C 436.382,452.198 438.048,452.698 439.5,453.5C 434.306,453.259 429.306,452.593 424.5,451.5C 427.518,451.665 430.518,451.498 433.5,451C 412.227,448.116 390.894,446.116 369.5,445C 371.708,445.191 373.708,445.691 375.5,446.5C 369.64,446.283 363.973,445.617 358.5,444.5C 361.85,444.665 365.183,444.498 368.5,444C 359.234,442.174 349.901,441.508 340.5,442C 343.695,442.181 346.695,442.681 349.5,443.5C 342.626,443.479 335.959,442.813 329.5,441.5C 332.85,441.665 336.183,441.498 339.5,441C 318.207,438.242 296.873,436.242 275.5,435C 277.708,435.191 279.708,435.691 281.5,436.5C 275.627,436.404 269.96,435.737 264.5,434.5C 267.85,434.665 271.183,434.498 274.5,434C 260.541,431.93 246.541,430.597 232.5,430C 234.382,430.198 236.048,430.698 237.5,431.5C 234.43,431.632 231.43,431.299 228.5,430.5C 228.5,430.167 228.5,429.833 228.5,429.5C 229.552,429.649 230.552,429.483 231.5,429C 228.123,428.548 224.789,427.882 221.5,427C 222.396,423.572 223.062,420.072 223.5,416.5C 264.792,412.005 306.126,407.838 347.5,404C 342.845,403.501 338.179,403.334 333.5,403.5C 340.646,402.384 347.98,401.717 355.5,401.5C 353.708,402.309 351.708,402.809 349.5,403C 363.208,402.863 376.874,401.863 390.5,400C 386.514,399.501 382.514,399.334 378.5,399.5C 381.625,398.521 384.958,398.187 388.5,398.5C 389.5,398.5 390.5,398.5 391.5,398.5C 396.316,399.65 401.316,399.816 406.5,399C 433.496,396.278 460.496,393.611 487.5,391C 483.514,390.501 479.514,390.334 475.5,390.5C 477.948,389.527 480.615,389.194 483.5,389.5C 487.846,389.666 492.179,389.499 496.5,389C 495.756,387.961 494.756,387.461 493.5,387.5C 492.609,386.89 491.609,386.557 490.5,386.5C 476.894,377.885 463.227,370.218 449.5,363.5C 449.167,362.167 448.833,362.167 448.5,363.5C 445.875,360.513 442.542,358.513 438.5,357.5C 438.5,356.833 438.167,356.5 437.5,356.5C 394.196,331.726 350.862,307.726 307.5,284.5C 307.027,283.094 306.027,282.427 304.5,282.5C 303.571,281.685 302.571,280.852 301.5,280C 302.883,278.729 303.883,277.229 304.5,275.5C 305.833,275.167 305.833,274.833 304.5,274.5C 303.105,273.352 303.272,272.352 305,271.5C 305.333,272.167 305.667,272.833 306,273.5C 307.093,271.651 308.426,269.984 310,268.5C 313.139,270.15 316.306,271.483 319.5,272.5C 320.209,273.404 321.209,273.737 322.5,273.5C 355.395,283.467 388.062,293.8 420.5,304.5C 422.102,306.074 424.102,306.741 426.5,306.5C 441.457,310.598 456.124,315.265 470.5,320.5C 471.209,321.404 472.209,321.737 473.5,321.5C 474.209,322.404 475.209,322.737 476.5,322.5C 489.159,325.72 501.493,329.72 513.5,334.5C 514.209,335.404 515.209,335.737 516.5,335.5C 517.5,335.5 518.5,335.5 519.5,335.5C 510.562,322.897 500.895,310.897 490.5,299.5C 490.5,298.833 490.167,298.5 489.5,298.5C 488.567,295.63 486.9,293.296 484.5,291.5C 484.5,290.833 484.167,290.5 483.5,290.5C 483.5,289.833 483.167,289.5 482.5,289.5C 477.645,282.46 472.311,275.793 466.5,269.5C 466.5,268.833 466.167,268.5 465.5,268.5C 464.55,265.885 462.883,263.885 460.5,262.5C 461.833,262.167 461.833,261.833 460.5,261.5C 447.183,244.187 433.516,227.187 419.5,210.5C 419.5,209.833 419.167,209.5 418.5,209.5C 418.5,208.833 418.167,208.5 417.5,208.5C 415.192,205.185 412.859,201.851 410.5,198.5C 410.557,197.391 410.89,196.391 411.5,195.5C 414.735,193.966 417.901,192.299 421,190.5C 441.064,207.734 461.564,224.4 482.5,240.5C 482.5,241.167 482.833,241.5 483.5,241.5C 512.551,265.977 542.384,290.311 573,314.5C 573.49,313.207 573.657,311.873 573.5,310.5C 574.268,311.263 574.768,312.263 575,313.5C 568.93,270.747 562.097,228.081 554.5,185.5C 556.342,185.277 558.175,184.943 560,184.5C 561.711,184.439 563.044,185.106 564,186.5C 564.464,185.906 564.631,185.239 564.5,184.5 Z M 554.5,515.5 C 554.842,514.662 555.508,514.328 556.5,514.5C 556.768,516.099 556.434,517.432 555.5,518.5C 555.737,517.209 555.404,516.209 554.5,515.5 Z"/></g>
<g><path style="opacity:1" fill="#3d3e3d" d="M 268.5,190.5 C 267.833,189.167 267.833,189.167 268.5,190.5 Z"/></g>
<g><path style="opacity:1" fill="#373837" d="M 757.5,191.5 C 758.833,192.167 758.833,192.167 757.5,191.5 Z"/></g>
<g><path style="opacity:1" fill="#434443" d="M 409.5,195.5 C 408.227,194.923 408.227,194.257 409.5,193.5C 410.463,193.97 410.463,194.637 409.5,195.5 Z"/></g>
<g><path style="opacity:1" fill="#4d4d4d" d="M 409.5,195.5 C 410.167,195.5 410.833,195.5 411.5,195.5C 410.89,196.391 410.557,197.391 410.5,198.5C 408.519,197.895 408.185,196.895 409.5,195.5 Z"/></g>
<g><path style="opacity:1" fill="#373837" d="M 240.5,207.5 C 241.833,208.167 241.833,208.167 240.5,207.5 Z"/></g>
<g><path style="opacity:1" fill="#3d3e37" d="M 243.5,208.5 C 244.833,209.167 244.833,209.167 243.5,208.5 Z"/></g>
<g><path style="opacity:1" fill="#1d1d1d" d="M 564.5,184.5 C 564.631,185.239 564.464,185.906 564,186.5C 563.044,185.106 561.711,184.439 560,184.5C 558.175,184.943 556.342,185.277 554.5,185.5C 562.097,228.081 568.93,270.747 575,313.5C 574.768,312.263 574.268,311.263 573.5,310.5C 572.383,306.705 571.717,302.705 571.5,298.5C 571.656,294.236 570.989,290.236 569.5,286.5C 569.795,284.265 569.461,282.265 568.5,280.5C 566.325,270.618 564.658,260.618 563.5,250.5C 563.461,246.267 562.795,242.267 561.5,238.5C 561.784,236.585 561.451,234.919 560.5,233.5C 557.406,217.603 554.739,201.603 552.5,185.5C 556.276,183.364 560.276,183.031 564.5,184.5 Z"/></g>
<g><path style="opacity:1" fill="#373837" d="M 778.5,209.5 C 779.833,210.167 779.833,210.167 778.5,209.5 Z"/></g>
<g><path style="opacity:1" fill="#3b3938" d="M 417.5,209.5 C 417.833,209.5 418.167,209.5 418.5,209.5C 419.167,209.5 419.5,209.833 419.5,210.5C 418.699,212.793 418.032,212.46 417.5,209.5 Z"/></g>
<g><path style="opacity:1" fill="#373837" d="M 782.5,213.5 C 783.833,214.167 783.833,214.167 782.5,213.5 Z"/></g>
<g><path style="opacity:1" fill="#3d3837" d="M 784.5,215.5 C 785.833,216.167 785.833,216.167 784.5,215.5 Z"/></g>
<g><path style="opacity:1" fill="#373e37" d="M 238.5,217.5 C 237.833,216.167 237.833,216.167 238.5,217.5 Z"/></g>
<g><path style="opacity:1" fill="#373837" d="M 786.5,217.5 C 787.833,218.167 787.833,218.167 786.5,217.5 Z"/></g>
<g><path style="opacity:1" fill="#373837" d="M 231.5,221.5 C 232.833,222.167 232.833,222.167 231.5,221.5 Z"/></g>
<g><path style="opacity:1" fill="#3e3b3b" d="M 223.5,225.5 C 224.525,225.897 224.692,226.563 224,227.5C 223.536,226.906 223.369,226.239 223.5,225.5 Z"/></g>
<g><path style="opacity:1" fill="#373e37" d="M 224.5,228.5 C 225.833,229.167 225.833,229.167 224.5,228.5 Z"/></g>
<g><path style="opacity:1" fill="#373837" d="M 798.5,229.5 C 799.833,230.167 799.833,230.167 798.5,229.5 Z"/></g>
<g><path style="opacity:1" fill="#373837" d="M 225.5,231.5 C 224.833,230.167 224.833,230.167 225.5,231.5 Z"/></g>
<g><path style="opacity:1" fill="#373837" d="M 801.5,232.5 C 802.833,233.167 802.833,233.167 801.5,232.5 Z"/></g>
<g><path style="opacity:1" fill="#424141" d="M 560.5,233.5 C 561.451,234.919 561.784,236.585 561.5,238.5C 560.539,240.265 560.205,242.265 560.5,244.5C 559.502,240.994 559.502,237.328 560.5,233.5 Z"/></g>
<g><path style="opacity:1" fill="#4c4b4b" d="M 561.5,238.5 C 562.795,242.267 563.461,246.267 563.5,250.5C 562.842,248.361 561.842,246.361 560.5,244.5C 561.461,242.735 561.795,240.735 561.5,238.5 Z"/></g>
<g><path style="opacity:1" fill="#3d3b3b" d="M 796.5,252.5 C 796.5,253.167 796.833,253.5 797.5,253.5C 797.217,254.289 796.717,254.956 796,255.5C 794.073,254.238 794.24,253.238 796.5,252.5 Z"/></g>
<g><path style="opacity:1" fill="#3d3837" d="M 204.5,256.5 C 203.833,255.167 203.833,255.167 204.5,256.5 Z"/></g>
<g><path style="opacity:1" fill="#3d3e37" d="M 199.5,256.5 C 200.833,257.167 200.833,257.167 199.5,256.5 Z"/></g>
<g><path style="opacity:1" fill="#3d3837" d="M 822.5,257.5 C 823.833,258.167 823.833,258.167 822.5,257.5 Z"/></g>
<g><path style="opacity:1" fill="#3e3c3c" d="M 800.5,258.5 C 800.833,258.5 801.167,258.5 801.5,258.5C 801.631,259.376 801.298,260.043 800.5,260.5C 799.537,260.03 799.537,259.363 800.5,258.5 Z"/></g>
<g><path style="opacity:1" fill="#1f1f1f" d="M 685.5,249.5 C 685.206,260.709 684.206,271.709 682.5,282.5C 682.088,268.285 682.921,253.951 685,239.5C 685.498,242.817 685.665,246.15 685.5,249.5 Z"/></g>
<g><path style="opacity:1" fill="#373837" d="M 828.5,262.5 C 829.833,263.167 829.833,263.167 828.5,262.5 Z"/></g>
<g><path style="opacity:1" fill="#373837" d="M 197.5,265.5 C 196.833,264.167 196.833,264.167 197.5,265.5 Z"/></g>
<g><path style="opacity:1" fill="#3e3d3a" d="M 191.5,264.5 C 192.525,264.897 192.692,265.563 192,266.5C 191.536,265.906 191.369,265.239 191.5,264.5 Z"/></g>
<g><path style="opacity:1" fill="#373837" d="M 192.5,272.5 C 191.833,271.167 191.833,271.167 192.5,272.5 Z"/></g>
<g><path style="opacity:1" fill="#373837" d="M 832.5,271.5 C 833.833,272.167 833.833,272.167 832.5,271.5 Z"/></g>
<g><path style="opacity:1" fill="#5d5f5d" d="M 322.5,273.5 C 321.209,273.737 320.209,273.404 319.5,272.5C 320.496,272.586 321.329,272.252 322,271.5C 322.464,272.094 322.631,272.761 322.5,273.5 Z"/></g>
<g><path style="opacity:1" fill="#3e3c3c" d="M 817.5,279.5 C 817.5,279.833 817.5,280.167 817.5,280.5C 816.637,281.463 815.97,281.463 815.5,280.5C 815.957,279.702 816.624,279.369 817.5,279.5 Z"/></g>
<g><path style="opacity:1" fill="#3e3939" d="M 183.5,281.5 C 184.525,281.897 184.692,282.563 184,283.5C 183.536,282.906 183.369,282.239 183.5,281.5 Z"/></g>
<g><path style="opacity:1" fill="#3e3e3e" d="M 304.5,282.5 C 304.833,283.167 305.167,283.833 305.5,284.5C 304.883,284.611 304.383,284.944 304,285.5C 303.26,284.251 303.427,283.251 304.5,282.5 Z"/></g>
<g><path style="opacity:1" fill="#4e4d4d" d="M 568.5,280.5 C 569.461,282.265 569.795,284.265 569.5,286.5C 568.637,287.463 567.97,287.463 567.5,286.5C 568.348,284.591 568.682,282.591 568.5,280.5 Z"/></g>
<g><path style="opacity:1" fill="#595755" d="M 820.5,282.5 C 821.906,282.973 822.573,283.973 822.5,285.5C 821.094,285.027 820.427,284.027 820.5,282.5 Z"/></g>
<g><path style="opacity:1" fill="#3d3e3d" d="M 180.5,287.5 C 181.833,288.167 181.833,288.167 180.5,287.5 Z"/></g>
<g><path style="opacity:1" fill="#3d3e37" d="M 843.5,287.5 C 844.833,288.167 844.833,288.167 843.5,287.5 Z"/></g>
<g><path style="opacity:1" fill="#525251" d="M 824.5,289.5 C 824.833,290.833 825.167,290.833 825.5,289.5C 826.338,289.842 826.672,290.508 826.5,291.5C 825.325,291.719 824.325,291.386 823.5,290.5C 823.624,289.893 823.957,289.56 824.5,289.5 Z"/></g>
<g><path style="opacity:1" fill="#474747" d="M 569.5,286.5 C 570.989,290.236 571.656,294.236 571.5,298.5C 570.711,298.217 570.044,297.717 569.5,297C 570.034,293.602 570.034,290.102 569.5,286.5 Z"/></g>
<g><path style="opacity:1" fill="#373837" d="M 849.5,296.5 C 848.833,295.167 848.833,295.167 849.5,296.5 Z"/></g>
<g><path style="opacity:1" fill="#3d3e37" d="M 849.5,296.5 C 850.833,297.167 850.833,297.167 849.5,296.5 Z"/></g>
<g><path style="opacity:1" fill="#373837" d="M 569.5,302.5 C 570.688,304.496 570.021,305.329 567.5,305C 568.381,304.292 569.047,303.458 569.5,302.5 Z"/></g>
<g><path style="opacity:1" fill="#3d383d" d="M 168.5,303.5 C 169.833,304.167 169.833,304.167 168.5,303.5 Z"/></g>
<g><path style="opacity:1" fill="#3d3e37" d="M 853.5,303.5 C 854.833,304.167 854.833,304.167 853.5,303.5 Z"/></g>
<g><path style="opacity:1" fill="#4c4a4c" d="M 426.5,306.5 C 424.102,306.741 422.102,306.074 420.5,304.5C 421.265,304.077 422.098,303.743 423,303.5C 423.207,304.905 424.373,305.905 426.5,306.5 Z"/></g>
<g><path style="opacity:1" fill="#3d3e3d" d="M 169.5,305.5 C 170.833,306.167 170.833,306.167 169.5,305.5 Z"/></g>
<g><path style="opacity:1" fill="#373837" d="M 854.5,305.5 C 855.833,306.167 855.833,306.167 854.5,305.5 Z"/></g>
<g><path style="opacity:1" fill="#4f4f4e" d="M 835.5,305.5 C 836.338,305.842 836.672,306.508 836.5,307.5C 833.075,307.633 832.742,306.967 835.5,305.5 Z"/></g>
<g><path style="opacity:1" fill="#3d3e3d" d="M 168.5,307.5 C 169.833,308.167 169.833,308.167 168.5,307.5 Z"/></g>
<g><path style="opacity:1" fill="#383736" d="M 495.5,308.5 C 497.646,308.696 497.812,309.696 496,311.5C 495.517,310.552 495.351,309.552 495.5,308.5 Z"/></g>
<g><path style="opacity:1" fill="#3d3e37" d="M 858.5,312.5 C 859.833,313.167 859.833,313.167 858.5,312.5 Z"/></g>
<g><path style="opacity:1" fill="#565556" d="M 679.5,308.5 C 679.833,308.5 680.167,308.5 680.5,308.5C 680.422,315.7 679.755,322.7 678.5,329.5C 678.668,322.49 679.001,315.49 679.5,308.5 Z"/></g>
<g><path style="opacity:1" fill="#151515" d="M 679.5,308.5 C 679.001,315.49 678.668,322.49 678.5,329.5C 678.706,333.898 678.373,338.232 677.5,342.5C 676.698,343.952 676.198,345.618 676,347.5C 675.833,345.833 675.667,344.167 675.5,342.5C 676.2,329.078 677.534,317.745 679.5,308.5 Z"/></g>
<g><path style="opacity:1" fill="#514c4c" d="M 473.5,321.5 C 472.209,321.737 471.209,321.404 470.5,320.5C 471.496,320.586 472.329,320.252 473,319.5C 473.464,320.094 473.631,320.761 473.5,321.5 Z"/></g>
<g><path style="opacity:1" fill="#4b4b4b" d="M 729.5,320.5 C 729.158,321.338 728.492,321.672 727.5,321.5C 726.496,319.323 727.162,318.989 729.5,320.5 Z"/></g>
<g><path style="opacity:1" fill="#373837" d="M 162.5,321.5 C 163.833,322.167 163.833,322.167 162.5,321.5 Z"/></g>
<g><path style="opacity:1" fill="#464646" d="M 476.5,322.5 C 475.209,322.737 474.209,322.404 473.5,321.5C 474.583,321.461 475.583,321.127 476.5,320.5C 477.463,320.97 477.463,321.637 476.5,322.5 Z"/></g>
<g><path style="opacity:1" fill="#3d3e3d" d="M 160.5,323.5 C 161.833,324.167 161.833,324.167 160.5,323.5 Z"/></g>
<g><path style="opacity:1" fill="#464647" d="M 845.5,324.5 C 846.401,325.29 847.068,326.29 847.5,327.5C 844.834,327.934 843.667,326.934 844,324.5C 844.69,325.738 845.19,325.738 845.5,324.5 Z"/></g>
<g><path style="opacity:1" fill="#4b4946" d="M 516.5,335.5 C 515.209,335.737 514.209,335.404 513.5,334.5C 514.895,333.185 515.895,333.519 516.5,335.5 Z"/></g>
<g><path style="opacity:1" fill="#3d3e3d" d="M 152.5,337.5 C 152.369,336.761 152.536,336.094 153,335.5C 153.692,336.437 153.525,337.103 152.5,337.5 Z"/></g>
<g><path style="opacity:1" fill="#3d3e3d" d="M 155.5,336.5 C 156.833,337.167 156.833,337.167 155.5,336.5 Z"/></g>
<g><path style="opacity:1" fill="#3d3e3d" d="M 152.5,337.5 C 151.833,338.167 151.833,338.167 152.5,337.5 Z"/></g>
<g><path style="opacity:1" fill="#3d3e37" d="M 152.5,345.5 C 153.833,346.167 153.833,346.167 152.5,345.5 Z"/></g>
<g><path style="opacity:1" fill="#3d3e3d" d="M 883.5,349.5 C 884.833,350.167 884.833,350.167 883.5,349.5 Z"/></g>
<g><path style="opacity:1" fill="#3d3e3d" d="M 877.5,350.5 C 878.833,351.167 878.833,351.167 877.5,350.5 Z"/></g>
<g><path style="opacity:1" fill="#373837" d="M 878.5,359.5 C 879.833,360.167 879.833,360.167 878.5,359.5 Z"/></g>
<g><path style="opacity:1" fill="#3d3e3d" d="M 143.5,360.5 C 144.833,361.167 144.833,361.167 143.5,360.5 Z"/></g>
<g><path style="opacity:1" fill="#3d3e3d" d="M 145.5,364.5 C 146.833,365.167 146.833,365.167 145.5,364.5 Z"/></g>
<g><path style="opacity:1" fill="#3d383d" d="M 144.5,367.5 C 145.833,368.167 145.833,368.167 144.5,367.5 Z"/></g>
<g><path style="opacity:1" fill="#3d3e3d" d="M 882.5,368.5 C 883.525,368.897 883.692,369.563 883,370.5C 882.536,369.906 882.369,369.239 882.5,368.5 Z"/></g>
<g><path style="opacity:1" fill="#3d383d" d="M 143.5,370.5 C 144.833,371.167 144.833,371.167 143.5,370.5 Z"/></g>
<g><path style="opacity:1" fill="#373837" d="M 144.5,374.5 C 143.833,373.167 143.833,373.167 144.5,374.5 Z"/></g>
<g><path style="opacity:1" fill="#373837" d="M 886.5,383.5 C 887.833,384.167 887.833,384.167 886.5,383.5 Z"/></g>
<g><path style="opacity:1" fill="#4e4e4d" d="M 490.5,386.5 C 491.053,388.552 492.053,388.885 493.5,387.5C 494.756,387.461 495.756,387.961 496.5,389C 492.179,389.499 487.846,389.666 483.5,389.5C 483.369,388.761 483.536,388.094 484,387.5C 486.464,388.909 488.631,388.576 490.5,386.5 Z"/></g>
<g><path style="opacity:1" fill="#5b5c5c" d="M 451.5,392.5 C 449.052,393.473 446.385,393.806 443.5,393.5C 443.369,392.761 443.536,392.094 444,391.5C 446.381,392.435 448.881,392.768 451.5,392.5 Z"/></g>
<g><path style="opacity:1" fill="#555554" d="M 441.5,393.5 C 438.713,394.477 435.713,394.81 432.5,394.5C 432.586,393.504 432.252,392.671 431.5,392C 432.5,391.333 433.5,391.333 434.5,392C 434.167,392.333 433.833,392.667 433.5,393C 436.146,393.497 438.813,393.664 441.5,393.5 Z"/></g>
<g><path style="opacity:1" fill="#3d3e3d" d="M 137.5,394.5 C 138.833,395.167 138.833,395.167 137.5,394.5 Z"/></g>
<g><path style="opacity:1" fill="#232323" d="M 711.5,389.5 C 730.604,392.788 749.604,396.454 768.5,400.5C 769.718,401.161 771.051,401.828 772.5,402.5C 751.621,399.211 730.621,395.378 709.5,391C 710.044,390.283 710.711,389.783 711.5,389.5 Z"/></g>
<g><path style="opacity:1" fill="#1a1a1a" d="M 475.5,390.5 C 479.514,390.334 483.514,390.501 487.5,391C 460.496,393.611 433.496,396.278 406.5,399C 401.316,399.816 396.316,399.65 391.5,398.5C 397.373,398.404 403.04,397.737 408.5,396.5C 416.424,395.175 424.424,394.508 432.5,394.5C 435.713,394.81 438.713,394.477 441.5,393.5C 442.167,393.5 442.833,393.5 443.5,393.5C 446.385,393.806 449.052,393.473 451.5,392.5C 459.441,391.394 467.441,390.727 475.5,390.5 Z"/></g>
<g><path style="opacity:1" fill="#4b4a4a" d="M 408.5,396.5 C 403.04,397.737 397.373,398.404 391.5,398.5C 390.5,398.5 389.5,398.5 388.5,398.5C 394.959,397.187 401.626,396.521 408.5,396.5 Z"/></g>
<g><path style="opacity:1" fill="#404140" d="M 140.5,393.5 C 140.706,396.495 140.04,399.162 138.5,401.5C 138.565,398.572 139.232,395.905 140.5,393.5 Z"/></g>
<g><path style="opacity:1" fill="#3d3e3d" d="M 338.5,399.5 C 342.373,401.154 342.04,401.654 337.5,401C 338.056,400.617 338.389,400.117 338.5,399.5 Z"/></g>
<g><path style="opacity:1" fill="#515352" d="M 364.5,400.5 C 361.713,401.477 358.713,401.81 355.5,401.5C 354.391,400.71 353.058,400.21 351.5,400C 355.835,399.737 360.168,399.903 364.5,400.5 Z"/></g>
<g><path style="opacity:1" fill="#161617" d="M 378.5,399.5 C 382.514,399.334 386.514,399.501 390.5,400C 376.874,401.863 363.208,402.863 349.5,403C 351.708,402.809 353.708,402.309 355.5,401.5C 358.713,401.81 361.713,401.477 364.5,400.5C 369.07,399.559 373.737,399.226 378.5,399.5 Z"/></g>
<g><path style="opacity:1" fill="#1f1e1e" d="M 885.5,500.5 C 885.206,481.622 884.206,462.622 882.5,443.5C 882.802,440.941 882.468,438.607 881.5,436.5C 879.506,426.196 877.506,415.862 875.5,405.5C 875.5,404.5 875.5,403.5 875.5,402.5C 875.435,402.062 875.601,401.728 876,401.5C 886.336,439.527 889.669,478.193 886,517.5C 885.501,511.843 885.334,506.176 885.5,500.5 Z"/></g>
<g><path style="opacity:1" fill="#464445" d="M 874.5,402.5 C 874.833,402.5 875.167,402.5 875.5,402.5C 875.5,403.5 875.5,404.5 875.5,405.5C 874.71,406.609 874.21,407.942 874,409.5C 873.598,408.128 873.098,406.795 872.5,405.5C 873.612,404.735 874.279,403.735 874.5,402.5 Z"/></g>
<g><path style="opacity:1" fill="#414142" d="M 323.5,404.5 C 317.041,405.813 310.374,406.479 303.5,406.5C 309.947,405.064 316.614,404.397 323.5,404.5 Z"/></g>
<g><path style="opacity:1" fill="#393939" d="M 262.5,409.5 C 260.645,409.728 259.812,409.061 260,407.5C 260.995,408.066 261.828,408.733 262.5,409.5 Z"/></g>
<g><path style="opacity:1" fill="#3d3e37" d="M 893.5,409.5 C 894.833,410.167 894.833,410.167 893.5,409.5 Z"/></g>
<g><path style="opacity:1" fill="#1c1c1c" d="M 137.5,562.5 C 135.334,554.676 134,546.676 133.5,538.5C 133.784,536.585 133.451,534.919 132.5,533.5C 131.117,525.906 130.45,518.24 130.5,510.5C 130.5,493.833 130.5,477.167 130.5,460.5C 131.133,440.427 133.799,420.761 138.5,401.5C 140.04,399.162 140.706,396.495 140.5,393.5C 140.565,390.572 141.232,387.905 142.5,385.5C 143.268,384.737 143.768,383.737 144,382.5C 144.167,383.167 144.333,383.833 144.5,384.5C 129.731,444.143 127.898,504.143 139,564.5C 138.722,563.584 138.222,562.918 137.5,562.5 Z"/></g>
<g><path style="opacity:1" fill="#202020" d="M 333.5,403.5 C 338.179,403.334 342.845,403.501 347.5,404C 306.126,407.838 264.792,412.005 223.5,416.5C 223.062,420.072 222.396,423.572 221.5,427C 224.789,427.882 228.123,428.548 231.5,429C 230.552,429.483 229.552,429.649 228.5,429.5C 223.093,430.82 220.426,428.82 220.5,423.5C 220.525,420.04 221.192,416.706 222.5,413.5C 223.086,413.709 223.586,414.043 224,414.5C 236.919,412.738 249.753,411.072 262.5,409.5C 276.152,408.301 289.819,407.301 303.5,406.5C 310.374,406.479 317.041,405.813 323.5,404.5C 326.625,403.521 329.958,403.187 333.5,403.5 Z"/></g>
<g><path style="opacity:1" fill="#181818" d="M 891.5,409.5 C 891.294,412.495 891.96,415.162 893.5,417.5C 893.5,418.167 893.833,418.5 894.5,418.5C 894.942,422.154 895.276,425.821 895.5,429.5C 895.663,431.857 895.497,434.19 895,436.5C 892.783,426.2 891.116,415.867 890,405.5C 890.21,407.058 890.71,408.391 891.5,409.5 Z"/></g>
<g><path style="opacity:1" fill="#3c393a" d="M 894.5,418.5 C 894.343,417.127 894.51,415.793 895,414.5C 895.765,416.066 895.598,417.399 894.5,418.5 Z"/></g>
<g><path style="opacity:1" fill="#454445" d="M 891.5,409.5 C 892.768,411.905 893.435,414.572 893.5,417.5C 891.96,415.162 891.294,412.495 891.5,409.5 Z"/></g>
<g><path style="opacity:1" fill="#504f4f" d="M 804.5,414.5 C 805.224,416.218 805.891,418.052 806.5,420C 803.568,420.953 800.568,421.453 797.5,421.5C 799.599,420.388 801.933,419.721 804.5,419.5C 804.5,417.833 804.5,416.167 804.5,414.5 Z"/></g>
<g><path style="opacity:1" fill="#20201f" d="M 779.5,425.5 C 773.386,427.324 767.053,428.657 760.5,429.5C 759.127,429.657 757.793,429.49 756.5,429C 765.016,426.369 773.682,424.702 782.5,424C 781.263,424.232 780.263,424.732 779.5,425.5 Z"/></g>
<g><path style="opacity:1" fill="#4e4e4e" d="M 220.5,423.5 C 220.426,428.82 223.093,430.82 228.5,429.5C 228.5,429.833 228.5,430.167 228.5,430.5C 224.812,431.578 221.478,430.745 218.5,428C 219.099,426.378 219.766,424.878 220.5,423.5 Z"/></g>
<g><path style="opacity:1" fill="#161616" d="M 264.5,434.5 C 264.167,434.5 263.833,434.5 263.5,434.5C 261.393,433.532 259.059,433.198 256.5,433.5C 250.046,433.555 243.712,432.888 237.5,431.5C 236.048,430.698 234.382,430.198 232.5,430C 246.541,430.597 260.541,431.93 274.5,434C 271.183,434.498 267.85,434.665 264.5,434.5 Z"/></g>
<g><path style="opacity:1" fill="#3d383d" d="M 897.5,432.5 C 898.833,433.167 898.833,433.167 897.5,432.5 Z"/></g>
<g><path style="opacity:1" fill="#4e514f" d="M 256.5,433.5 C 259.059,433.198 261.393,433.532 263.5,434.5C 261.179,434.229 259.179,434.896 257.5,436.5C 257.483,435.606 257.149,434.606 256.5,433.5 Z"/></g>
<g><path style="opacity:1" fill="#3d3e3d" d="M 264.5,437.5 C 265.849,436.203 267.182,436.37 268.5,438C 267.181,438.195 265.847,438.028 264.5,437.5 Z"/></g>
<g><path style="opacity:1" fill="#525353" d="M 283.5,436.5 C 286.059,436.198 288.393,436.532 290.5,437.5C 288.208,437.244 286.041,437.577 284,438.5C 283.536,437.906 283.369,437.239 283.5,436.5 Z"/></g>
<g><path style="opacity:1" fill="#454444" d="M 881.5,436.5 C 882.468,438.607 882.802,440.941 882.5,443.5C 881.71,444.609 881.21,445.942 881,447.5C 880.308,446.975 879.808,446.308 879.5,445.5C 879.621,442.998 879.788,440.332 880,437.5C 880.981,443.864 881.481,443.531 881.5,436.5 Z"/></g>
<g><path style="opacity:1" fill="#1a1a1a" d="M 329.5,441.5 C 316.434,440.627 303.434,439.293 290.5,437.5C 288.393,436.532 286.059,436.198 283.5,436.5C 282.833,436.5 282.167,436.5 281.5,436.5C 279.708,435.691 277.708,435.191 275.5,435C 296.873,436.242 318.207,438.242 339.5,441C 336.183,441.498 332.85,441.665 329.5,441.5 Z"/></g>
<g><path style="opacity:1" fill="#4e4e4f" d="M 720.5,438.5 C 720.167,439.5 719.5,440.167 718.5,440.5C 718.167,439.167 717.833,439.167 717.5,440.5C 716.957,440.44 716.624,440.107 716.5,439.5C 717.689,438.571 719.022,438.238 720.5,438.5 Z"/></g>
<g><path style="opacity:1" fill="#3d383d" d="M 900.5,440.5 C 901.833,441.167 901.833,441.167 900.5,440.5 Z"/></g>
<g><path style="opacity:1" fill="#121212" d="M 358.5,444.5 C 355.287,444.81 352.287,444.477 349.5,443.5C 346.695,442.681 343.695,442.181 340.5,442C 349.901,441.508 359.234,442.174 368.5,444C 365.183,444.498 361.85,444.665 358.5,444.5 Z"/></g>
<g><path style="opacity:1" fill="#3e3d3b" d="M 129.5,441.5 C 130.573,442.251 130.74,443.251 130,444.5C 129.517,443.552 129.351,442.552 129.5,441.5 Z"/></g>
<g><path style="opacity:1" fill="#3b3938" d="M 351.5,446.5 C 352.946,445.387 354.613,445.22 356.5,446C 356,446.5 355.5,447 355,447.5C 353.989,446.663 352.822,446.33 351.5,446.5 Z"/></g>
<g><path style="opacity:1" fill="#1c1c1c" d="M 424.5,451.5 C 408.068,450.341 391.735,448.674 375.5,446.5C 373.708,445.691 371.708,445.191 369.5,445C 390.894,446.116 412.227,448.116 433.5,451C 430.518,451.498 427.518,451.665 424.5,451.5 Z"/></g>
<g><path style="opacity:1" fill="#3d3e3d" d="M 899.5,445.5 C 900.833,446.167 900.833,446.167 899.5,445.5 Z"/></g>
<g><path style="opacity:1" fill="#3e3d3f" d="M 128.5,449.5 C 129.776,450.386 129.776,451.386 128.5,452.5C 127.913,451.767 127.913,450.767 128.5,449.5 Z"/></g>
<g><path style="opacity:1" fill="#191a1a" d="M 462.5,455.5 C 454.783,455.295 447.116,454.628 439.5,453.5C 438.048,452.698 436.382,452.198 434.5,452C 446.898,451.95 459.231,452.95 471.5,455C 468.518,455.498 465.518,455.665 462.5,455.5 Z"/></g>
<g><path style="opacity:1" fill="#383738" d="M 421.5,453.5 C 420.167,453.833 420.167,454.167 421.5,454.5C 421.44,455.043 421.107,455.376 420.5,455.5C 419.15,453.98 417.817,453.313 416.5,453.5C 418.299,452.212 419.965,452.212 421.5,453.5 Z"/></g>
<g><path style="opacity:1" fill="#363636" d="M 421.5,454.5 C 421.5,454.167 421.5,453.833 421.5,453.5C 422.363,452.537 423.03,452.537 423.5,453.5C 423.043,454.298 422.376,454.631 421.5,454.5 Z"/></g>
<g><path style="opacity:1" fill="#423c3e" d="M 127.5,456.5 C 128.289,456.783 128.956,457.283 129.5,458C 128.184,458.528 127.517,458.028 127.5,456.5 Z"/></g>
<g><path style="opacity:1" fill="#3d3e3d" d="M 900.5,457.5 C 901.833,458.167 901.833,458.167 900.5,457.5 Z"/></g>
<g><path style="opacity:1" fill="#1f1f1f" d="M 154.5,398.5 C 148.516,427.024 145.183,455.691 144.5,484.5C 144.496,520.468 143.83,520.468 142.5,484.5C 142.641,454.017 146.474,424.017 154,394.5C 154.49,395.793 154.657,397.127 154.5,398.5 Z"/></g>
<g><path style="opacity:1" fill="#383636" d="M 488.5,463.5 C 493.696,463.565 493.696,464.232 488.5,465.5C 487.537,465.03 487.537,464.363 488.5,463.5 Z"/></g>
<g><path style="opacity:1" fill="#363237" d="M 487.5,466.5 C 488.289,466.783 488.956,467.283 489.5,468C 488.184,468.528 487.517,468.028 487.5,466.5 Z"/></g>
<g><path style="opacity:1" fill="#3f3e3e" d="M 127.5,464.5 C 128.648,468.981 128.815,473.648 128,478.5C 127.501,473.845 127.334,469.179 127.5,464.5 Z"/></g>
<g><path style="opacity:1" fill="#242424" d="M 897.5,441.5 C 901.549,475.164 901.382,508.831 897,542.5C 896.128,550.423 894.628,558.09 892.5,565.5C 891.957,564.258 891.623,562.925 891.5,561.5C 897.026,532.08 899.193,502.413 898,472.5C 897.054,460.824 896.387,449.157 896,437.5C 896.21,439.058 896.71,440.391 897.5,441.5 Z"/></g>
<g><path style="opacity:1" fill="#3d3e37" d="M 901.5,473.5 C 902.833,474.167 902.833,474.167 901.5,473.5 Z"/></g>
<g><path style="opacity:1" fill="#525151" d="M 130.5,460.5 C 130.5,477.167 130.5,493.833 130.5,510.5C 130.035,501.4 129.035,492.233 127.5,483C 127.851,479.896 128.351,480.063 129,483.5C 129.171,475.656 129.671,467.989 130.5,460.5 Z"/></g>
<g><path style="opacity:1" fill="#3d3e3d" d="M 127.5,489.5 C 128.525,489.897 128.692,490.563 128,491.5C 127.536,490.906 127.369,490.239 127.5,489.5 Z"/></g>
<g><path style="opacity:1" fill="#3d3e3d" d="M 127.5,492.5 C 128.833,493.167 128.833,493.167 127.5,492.5 Z"/></g>
<g><path style="opacity:1" fill="#3d3e3d" d="M 127.5,494.5 C 128.833,495.167 128.833,495.167 127.5,494.5 Z"/></g>
<g><path style="opacity:1" fill="#413e3d" d="M 127.5,497.5 C 128.629,499.628 128.796,501.961 128,504.5C 127.503,502.19 127.337,499.857 127.5,497.5 Z"/></g>
<g><path style="opacity:1" fill="#3d3e3d" d="M 127.5,505.5 C 128.833,506.167 128.833,506.167 127.5,505.5 Z"/></g>
<g><path style="opacity:1" fill="#3d3e3d" d="M 127.5,507.5 C 128.833,508.167 128.833,508.167 127.5,507.5 Z"/></g>
<g><path style="opacity:1" fill="#3d3e3d" d="M 128.5,513.5 C 129.622,515.288 129.789,517.288 129,519.5C 128.505,517.527 128.338,515.527 128.5,513.5 Z"/></g>
<g><path style="opacity:1" fill="#3b3938" d="M 554.5,515.5 C 555.404,516.209 555.737,517.209 555.5,518.5C 554.603,517.402 553.77,517.402 553,518.5C 552.536,517.906 552.369,517.239 552.5,516.5C 553.492,516.672 554.158,516.338 554.5,515.5 Z"/></g>
<g><path style="opacity:1" fill="#646464" d="M 809.5,510.5 C 810.117,510.611 810.617,510.944 811,511.5C 811.805,514.696 811.638,517.696 810.5,520.5C 810.658,517.098 810.324,513.764 809.5,510.5 Z"/></g>
<g><path style="opacity:1" fill="#3d3837" d="M 900.5,521.5 C 901.833,522.167 901.833,522.167 900.5,521.5 Z"/></g>
<g><path style="opacity:1" fill="#5d5c5c" d="M 810.5,521.5 C 811.885,522.302 811.718,522.969 810,523.5C 809.235,523.43 808.735,523.097 808.5,522.5C 809.492,522.672 810.158,522.338 810.5,521.5 Z"/></g>
<g><path style="opacity:1" fill="#3d3e3d" d="M 129.5,525.5 C 130.833,526.167 130.833,526.167 129.5,525.5 Z"/></g>
<g><path style="opacity:1" fill="#3e3e3d" d="M 879.5,529.5 C 881.344,530.204 881.844,531.537 881,533.5C 880.209,532.255 879.709,530.922 879.5,529.5 Z"/></g>
<g><path style="opacity:1" fill="#3d3e3d" d="M 129.5,530.5 C 130.833,531.167 130.833,531.167 129.5,530.5 Z"/></g>
<g><path style="opacity:1" fill="#1c1c1c" d="M 675.5,525.5 C 676.965,533.092 677.965,540.759 678.5,548.5C 678.664,551.187 678.497,553.854 678,556.5C 676.239,544.313 674.406,532.147 672.5,520C 672.833,519.5 673.167,519 673.5,518.5C 674.168,520.969 674.835,523.302 675.5,525.5 Z"/></g>
<g><path style="opacity:1" fill="#3d3e3d" d="M 130.5,532.5 C 131.833,533.167 131.833,533.167 130.5,532.5 Z"/></g>
<g><path style="opacity:1" fill="#383736" d="M 523.5,532.5 C 524.773,533.077 524.773,533.743 523.5,534.5C 522.537,534.03 522.537,533.363 523.5,532.5 Z"/></g>
<g><path style="opacity:1" fill="#3d3e3d" d="M 899.5,533.5 C 900.833,534.167 900.833,534.167 899.5,533.5 Z"/></g>
<g><path style="opacity:1" fill="#3d3e3d" d="M 127.5,535.5 C 128.833,536.167 128.833,536.167 127.5,535.5 Z"/></g>
<g><path style="opacity:1" fill="#5d5d5d" d="M 132.5,533.5 C 133.451,534.919 133.784,536.585 133.5,538.5C 132.761,538.631 132.094,538.464 131.5,538C 132.38,536.644 132.714,535.144 132.5,533.5 Z"/></g>
<g><path style="opacity:1" fill="#1f1f1f" d="M 878.5,559.5 C 879.799,548.739 881.465,538.072 883.5,527.5C 884.317,525.031 884.817,522.365 885,519.5C 884.852,534.724 882.852,549.724 879,564.5C 878.506,562.866 878.34,561.199 878.5,559.5 Z"/></g>
<g><path style="opacity:1" fill="#3d3e3d" d="M 898.5,540.5 C 899.833,541.167 899.833,541.167 898.5,540.5 Z"/></g>
<g><path style="opacity:1" fill="#3d3e3d" d="M 131.5,541.5 C 132.525,541.897 132.692,542.563 132,543.5C 131.536,542.906 131.369,542.239 131.5,541.5 Z"/></g>
<g><path style="opacity:1" fill="#333430" d="M 692.5,540.5 C 693.167,540.5 693.5,540.833 693.5,541.5C 693.253,543.975 692.587,543.975 691.5,541.5C 691.624,540.893 691.957,540.56 692.5,540.5 Z"/></g>
<g><path style="opacity:1" fill="#444644" d="M 551.5,541.5 C 551.706,544.495 551.04,547.162 549.5,549.5C 549.565,546.572 550.232,543.905 551.5,541.5 Z"/></g>
<g><path style="opacity:1" fill="#212121" d="M 146.5,520.5 C 148.405,533.835 150.405,547.169 152.5,560.5C 152.657,561.873 152.49,563.207 152,564.5C 147.169,547.849 144.836,530.849 145,513.5C 145.186,516.036 145.686,518.369 146.5,520.5 Z"/></g>
<g><path style="opacity:1" fill="#363837" d="M 390.5,552.5 C 389.833,552.5 389.5,552.833 389.5,553.5C 388.957,553.44 388.624,553.107 388.5,552.5C 389.257,551.227 389.923,551.227 390.5,552.5 Z"/></g>
<g><path style="opacity:1" fill="#373e37" d="M 894.5,562.5 C 895.833,563.167 895.833,563.167 894.5,562.5 Z"/></g>
<g><path style="opacity:1" fill="#4a494b" d="M 546.5,564.5 C 546.706,567.495 546.04,570.162 544.5,572.5C 544.565,569.572 545.232,566.905 546.5,564.5 Z"/></g>
<g><path style="opacity:1" fill="#1e1e1e" d="M 680.5,559.5 C 682.241,569.096 683.575,578.763 684.5,588.5C 684.664,591.187 684.497,593.854 684,596.5C 681.392,583.583 679.726,570.583 679,557.5C 679.278,558.416 679.778,559.082 680.5,559.5 Z"/></g>
<g><path style="opacity:1" fill="#141415" d="M 541.5,587.5 C 542.121,582.395 543.121,577.395 544.5,572.5C 546.04,570.162 546.706,567.495 546.5,564.5C 547.121,559.395 548.121,554.395 549.5,549.5C 551.04,547.162 551.706,544.495 551.5,541.5C 551.5,541.167 551.5,540.833 551.5,540.5C 552.158,539.602 552.824,538.602 553.5,537.5C 550.073,555.93 546.24,574.596 542,593.5C 541.505,591.527 541.338,589.527 541.5,587.5 Z"/></g>
<g><path style="opacity:1" fill="#3d3e3d" d="M 137.5,571.5 C 138.525,571.897 138.692,572.563 138,573.5C 137.536,572.906 137.369,572.239 137.5,571.5 Z"/></g>
<g><path style="opacity:1" fill="#3d3e3d" d="M 138.5,576.5 C 139.833,577.167 139.833,577.167 138.5,576.5 Z"/></g>
<g><path style="opacity:1" fill="#49494a" d="M 432.5,580.5 C 431.402,581.397 431.402,582.23 432.5,583C 431.423,583.47 430.423,583.303 429.5,582.5C 429.973,581.094 430.973,580.427 432.5,580.5 Z"/></g>
<g><path style="opacity:1" fill="#373837" d="M 435.5,581.5 C 438.137,583.154 437.803,583.654 434.5,583C 435.056,582.617 435.389,582.117 435.5,581.5 Z"/></g>
<g><path style="opacity:1" fill="#3d3e3d" d="M 886.5,594.5 C 887.833,595.167 887.833,595.167 886.5,594.5 Z"/></g>
<g><path style="opacity:1" fill="#5b5b5d" d="M 685.5,595.5 C 687.109,596.665 687.443,597.999 686.5,599.5C 685.662,599.158 685.328,598.492 685.5,597.5C 685.5,596.833 685.5,596.167 685.5,595.5 Z"/></g>
<g><path style="opacity:1" fill="#3e3d3c" d="M 145.5,597.5 C 145.649,598.552 145.483,599.552 145,600.5C 144.26,599.251 144.427,598.251 145.5,597.5 Z"/></g>
<g><path style="opacity:1" fill="#373837" d="M 145.5,601.5 C 146.833,602.167 146.833,602.167 145.5,601.5 Z"/></g>
<g><path style="opacity:1" fill="#595354" d="M 538.5,602.5 C 538.737,603.791 538.404,604.791 537.5,605.5C 537.586,604.504 537.252,603.671 536.5,603C 537.094,602.536 537.761,602.369 538.5,602.5 Z"/></g>
<g><path style="opacity:1" fill="#393939" d="M 747.5,605.5 C 750.001,605.511 750.168,606.178 748,607.5C 747.536,606.906 747.369,606.239 747.5,605.5 Z"/></g>
<g><path style="opacity:1" fill="#3d3e3d" d="M 883.5,605.5 C 884.833,606.167 884.833,606.167 883.5,605.5 Z"/></g>
<g><path style="opacity:1" fill="#404040" d="M 147.5,603.5 C 147.833,606.167 148.167,606.167 148.5,603.5C 149.404,604.209 149.737,605.209 149.5,606.5C 148.211,607.501 146.878,607.334 145.5,606C 146.066,605.005 146.733,604.172 147.5,603.5 Z"/></g>
<g><path style="opacity:1" fill="#373837" d="M 151.5,618.5 C 152.833,619.167 152.833,619.167 151.5,618.5 Z"/></g>
<g><path style="opacity:1" fill="#373e37" d="M 878.5,618.5 C 879.833,619.167 879.833,619.167 878.5,618.5 Z"/></g>
<g><path style="opacity:1" fill="#3e3a3a" d="M 154.5,622.5 C 153.923,623.773 153.257,623.773 152.5,622.5C 152.97,621.537 153.637,621.537 154.5,622.5 Z"/></g>
<g><path style="opacity:1" fill="#3d3e3d" d="M 877.5,622.5 C 878.833,623.167 878.833,623.167 877.5,622.5 Z"/></g>
<g><path style="opacity:1" fill="#373837" d="M 152.5,624.5 C 153.833,625.167 153.833,625.167 152.5,624.5 Z"/></g>
<g><path style="opacity:1" fill="#545354" d="M 155.5,623.5 C 156.338,623.842 156.672,624.508 156.5,625.5C 154.323,626.504 153.989,625.838 155.5,623.5 Z"/></g>
<g><path style="opacity:1" fill="#3d3837" d="M 157.5,630.5 C 156.833,631.167 156.833,631.167 157.5,630.5 Z"/></g>
<g><path style="opacity:1" fill="#191819" d="M 527.5,659.5 C 528.092,656.873 528.425,654.206 528.5,651.5C 528.882,646.256 529.882,641.256 531.5,636.5C 532.29,635.391 532.79,634.058 533,632.5C 532.375,642.296 530.709,651.963 528,661.5C 527.536,660.906 527.369,660.239 527.5,659.5 Z"/></g>
<g><path style="opacity:1" fill="#202021" d="M 685.5,597.5 C 685.328,598.492 685.662,599.158 686.5,599.5C 688.909,614.435 690.909,629.435 692.5,644.5C 692.663,646.857 692.497,649.19 692,651.5C 689.5,634.832 687,618.166 684.5,601.5C 684.511,599.955 684.844,598.622 685.5,597.5 Z"/></g>
<g><path style="opacity:1" fill="#373837" d="M 161.5,639.5 C 161.631,640.239 161.464,640.906 161,641.5C 160.308,640.563 160.475,639.897 161.5,639.5 Z"/></g>
<g><path style="opacity:1" fill="#484846" d="M 316.5,643.5 C 316.842,642.662 317.508,642.328 318.5,642.5C 319.504,644.677 318.838,645.011 316.5,643.5 Z"/></g>
<g><path style="opacity:1" fill="#383736" d="M 164.5,645.5 C 164.631,646.239 164.464,646.906 164,647.5C 163.308,646.563 163.475,645.897 164.5,645.5 Z"/></g>
<g><path style="opacity:1" fill="#3d383d" d="M 867.5,646.5 C 868.833,647.167 868.833,647.167 867.5,646.5 Z"/></g>
<g><path style="opacity:1" fill="#373837" d="M 168.5,656.5 C 169.833,657.167 169.833,657.167 168.5,656.5 Z"/></g>
<g><path style="opacity:1" fill="#565557" d="M 528.5,651.5 C 528.425,654.206 528.092,656.873 527.5,659.5C 527.167,659.5 526.833,659.5 526.5,659.5C 526.565,656.572 527.232,653.905 528.5,651.5 Z"/></g>
<g><path style="opacity:1" fill="#3d383d" d="M 862.5,660.5 C 863.833,661.167 863.833,661.167 862.5,660.5 Z"/></g>
<g><path style="opacity:1" fill="#3d3837" d="M 171.5,662.5 C 172.833,663.167 172.833,663.167 171.5,662.5 Z"/></g>
<g><path style="opacity:1" fill="#373e3d" d="M 861.5,662.5 C 862.833,663.167 862.833,663.167 861.5,662.5 Z"/></g>
<g><path style="opacity:1" fill="#373837" d="M 177.5,670.5 C 176.833,671.167 176.833,671.167 177.5,670.5 Z"/></g>
<g><path style="opacity:1" fill="#444444" d="M 525.5,666.5 C 525.706,669.495 525.04,672.162 523.5,674.5C 523.565,671.572 524.232,668.905 525.5,666.5 Z"/></g>
<g><path style="opacity:1" fill="#373837" d="M 178.5,672.5 C 177.833,673.167 177.833,673.167 178.5,672.5 Z"/></g>
<g><path style="opacity:1" fill="#373837" d="M 177.5,675.5 C 178.833,676.167 178.833,676.167 177.5,675.5 Z"/></g>
<g><path style="opacity:1" fill="#060606" d="M 522.5,684.5 C 523.092,681.873 523.425,679.206 523.5,676.5C 523.5,675.833 523.5,675.167 523.5,674.5C 525.04,672.162 525.706,669.495 525.5,666.5C 526.29,665.391 526.79,664.058 527,662.5C 526.64,670.621 525.306,678.621 523,686.5C 522.536,685.906 522.369,685.239 522.5,684.5 Z"/></g>
<g><path style="opacity:1" fill="#373837" d="M 175.5,678.5 C 176.833,679.167 176.833,679.167 175.5,678.5 Z"/></g>
<g><path style="opacity:1" fill="#555554" d="M 523.5,676.5 C 523.425,679.206 523.092,681.873 522.5,684.5C 522.167,684.5 521.833,684.5 521.5,684.5C 521.565,681.572 522.232,678.905 523.5,676.5 Z"/></g>
<g><path style="opacity:1" fill="#3d3837" d="M 185.5,684.5 C 185.5,685.167 185.5,685.833 185.5,686.5C 184.167,685.833 184.167,685.167 185.5,684.5 Z"/></g>
<g><path style="opacity:1" fill="#3d3837" d="M 185.5,686.5 C 186.833,687.167 186.833,687.167 185.5,686.5 Z"/></g>
<g><path style="opacity:1" fill="#565756" d="M 676.5,684.5 C 677.404,685.209 677.737,686.209 677.5,687.5C 676.761,687.631 676.094,687.464 675.5,687C 676.252,686.329 676.586,685.496 676.5,684.5 Z"/></g>
<g><path style="opacity:1" fill="#373837" d="M 845.5,687.5 C 846.167,687.5 846.5,687.833 846.5,688.5C 846.167,688.167 845.833,687.833 845.5,687.5 Z"/></g>
<g><path style="opacity:1" fill="#3d3e37" d="M 846.5,688.5 C 847.833,689.167 847.833,689.167 846.5,688.5 Z"/></g>
<g><path style="opacity:1" fill="#373837" d="M 188.5,689.5 C 187.833,690.167 187.833,690.167 188.5,689.5 Z"/></g>
<g><path style="opacity:1" fill="#4b4b4c" d="M 521.5,686.5 C 521.451,690.078 520.785,693.411 519.5,696.5C 519.322,692.878 519.989,689.544 521.5,686.5 Z"/></g>
<g><path style="opacity:1" fill="#3d3837" d="M 842.5,692.5 C 843.833,693.167 843.833,693.167 842.5,692.5 Z"/></g>
<g><path style="opacity:1" fill="#373837" d="M 844.5,694.5 C 845.833,695.167 845.833,695.167 844.5,694.5 Z"/></g>
<g><path style="opacity:1" fill="#373837" d="M 191.5,695.5 C 192.833,696.167 192.833,696.167 191.5,695.5 Z"/></g>
<g><path style="opacity:1" fill="#373837" d="M 193.5,698.5 C 192.761,698.631 192.094,698.464 191.5,698C 192.437,697.308 193.103,697.475 193.5,698.5 Z"/></g>
<g><path style="opacity:1" fill="#373e37" d="M 193.5,698.5 C 193.833,698.5 194.167,698.5 194.5,698.5C 194.315,699.17 193.981,699.17 193.5,698.5 Z"/></g>
<g><path style="opacity:1" fill="#222222" d="M 697.5,675.5 C 699.828,690.122 702.161,704.789 704.5,719.5C 704.457,720.416 704.124,721.083 703.5,721.5C 699.292,705.214 696.792,688.547 696,671.5C 696.21,673.058 696.71,674.391 697.5,675.5 Z"/></g>
<g><path style="opacity:1" fill="#373837" d="M 194.5,702.5 C 195.833,703.167 195.833,703.167 194.5,702.5 Z"/></g>
<g><path style="opacity:1" fill="#373837" d="M 200.5,706.5 C 199.833,707.167 199.833,707.167 200.5,706.5 Z"/></g>
<g><path style="opacity:1" fill="#3a3837" d="M 201.5,709.5 C 200.761,709.631 200.094,709.464 199.5,709C 200.437,708.308 201.103,708.475 201.5,709.5 Z"/></g>
<g><path style="opacity:1" fill="#373837" d="M 201.5,709.5 C 201.833,709.5 202.167,709.5 202.5,709.5C 202.315,710.17 201.981,710.17 201.5,709.5 Z"/></g>
<g><path style="opacity:1" fill="#3d3837" d="M 822.5,724.5 C 823.833,725.167 823.833,725.167 822.5,724.5 Z"/></g>
<g><path style="opacity:1" fill="#373837" d="M 211.5,725.5 C 212.833,726.167 212.833,726.167 211.5,725.5 Z"/></g>
<g><path style="opacity:1" fill="#434443" d="M 687.5,726.5 C 688.077,725.227 688.743,725.227 689.5,726.5C 689.03,727.463 688.363,727.463 687.5,726.5 Z"/></g>
<g><path style="opacity:1" fill="#3d3837" d="M 215.5,727.5 C 214.833,726.167 214.833,726.167 215.5,727.5 Z"/></g>
<g><path style="opacity:1" fill="#373837" d="M 215.5,727.5 C 215.833,727.5 216.167,727.5 216.5,727.5C 216.315,728.17 215.981,728.17 215.5,727.5 Z"/></g>
<g><path style="opacity:1" fill="#5b595b" d="M 513.5,726.5 C 513.768,728.099 513.434,729.432 512.5,730.5C 512.67,729.178 512.337,728.011 511.5,727C 512.094,726.536 512.761,726.369 513.5,726.5 Z"/></g>
<g><path style="opacity:1" fill="#383635" d="M 220.5,732.5 C 220.489,735.001 219.822,735.168 218.5,733C 219.094,732.536 219.761,732.369 220.5,732.5 Z"/></g>
<g><path style="opacity:1" fill="#353534" d="M 228.5,740.5 C 229.167,740.5 229.5,740.833 229.5,741.5C 228.749,742.573 227.749,742.74 226.5,742C 227.044,741.283 227.711,740.783 228.5,740.5 Z"/></g>
<g><path style="opacity:1" fill="#3d3837" d="M 804.5,742.5 C 805.833,743.167 805.833,743.167 804.5,742.5 Z"/></g>
<g><path style="opacity:1" fill="#373837" d="M 233.5,746.5 C 233.541,750.243 232.874,750.41 231.5,747C 232.094,746.536 232.761,746.369 233.5,746.5 Z"/></g>
<g><path style="opacity:1" fill="#373837" d="M 796.5,750.5 C 797.833,751.167 797.833,751.167 796.5,750.5 Z"/></g>
<g><path style="opacity:1" fill="#4e4f50" d="M 260.5,751.5 C 262.404,751.738 263.738,752.738 264.5,754.5C 262.596,754.262 261.262,753.262 260.5,751.5 Z"/></g>
<g><path style="opacity:1" fill="#373837" d="M 241.5,754.5 C 241.483,756.028 240.816,756.528 239.5,756C 240.044,755.283 240.711,754.783 241.5,754.5 Z"/></g>
<g><path style="opacity:1" fill="#313837" d="M 245.5,758.5 C 244.833,759.167 244.833,759.167 245.5,758.5 Z"/></g>
<g><path style="opacity:1" fill="#4d5051" d="M 269.5,759.5 C 271.027,759.427 272.027,760.094 272.5,761.5C 270.973,761.573 269.973,760.906 269.5,759.5 Z"/></g>
<g><path style="opacity:1" fill="#373837" d="M 250.5,766.5 C 251.833,767.167 251.833,767.167 250.5,766.5 Z"/></g>
<g><path style="opacity:1" fill="#504f53" d="M 753.5,768.5 C 753.167,769.5 752.5,770.167 751.5,770.5C 751.131,768.007 751.797,767.34 753.5,768.5 Z"/></g>
<g><path style="opacity:1" fill="#373831" d="M 258.5,770.5 C 257.833,771.167 257.833,771.167 258.5,770.5 Z"/></g>
<g><path style="opacity:1" fill="#5b5c5b" d="M 505.5,770.5 C 505.784,772.415 505.451,774.081 504.5,775.5C 504.714,773.856 504.38,772.356 503.5,771C 504.094,770.536 504.761,770.369 505.5,770.5 Z"/></g>
<g><path style="opacity:1" fill="#373837" d="M 259.5,773.5 C 258.833,772.167 258.833,772.167 259.5,773.5 Z"/></g>
<g><path style="opacity:1" fill="#373837" d="M 255.5,773.5 C 256.833,774.167 256.833,774.167 255.5,773.5 Z"/></g>
<g><path style="opacity:1" fill="#373837" d="M 259.5,773.5 C 260.239,773.369 260.906,773.536 261.5,774C 260.563,774.692 259.897,774.525 259.5,773.5 Z"/></g>
<g><path style="opacity:1" fill="#373837" d="M 263.5,778.5 C 264.833,779.167 264.833,779.167 263.5,778.5 Z"/></g>
<g><path style="opacity:1" fill="#373837" d="M 766.5,780.5 C 767.833,781.167 767.833,781.167 766.5,780.5 Z"/></g>
<g><path style="opacity:1" fill="#373e37" d="M 267.5,781.5 C 268.833,782.167 268.833,782.167 267.5,781.5 Z"/></g>
<g><path style="opacity:1" fill="#141414" d="M 523.5,782.5 C 523.443,783.609 523.11,784.609 522.5,785.5C 520.283,786.369 517.95,786.702 515.5,786.5C 514.167,786.5 512.833,786.5 511.5,786.5C 509.052,785.527 506.385,785.194 503.5,785.5C 503.5,784.5 503.5,783.5 503.5,782.5C 503.298,780.05 503.631,777.717 504.5,775.5C 505.451,774.081 505.784,772.415 505.5,770.5C 505.205,768.265 505.539,766.265 506.5,764.5C 507.29,763.391 507.79,762.058 508,760.5C 507.746,768.201 506.913,775.868 505.5,783.5C 510.489,784.222 515.489,784.388 520.5,784C 521.46,782.581 522.293,781.081 523,779.5C 523.483,780.448 523.649,781.448 523.5,782.5 Z"/></g>
<g><path style="opacity:1" fill="#373837" d="M 764.5,782.5 C 765.833,783.167 765.833,783.167 764.5,782.5 Z"/></g>
<g><path style="opacity:1" fill="#5b5b5b" d="M 503.5,782.5 C 503.5,783.5 503.5,784.5 503.5,785.5C 506.385,785.194 509.052,785.527 511.5,786.5C 508.5,786.5 505.5,786.5 502.5,786.5C 502.232,784.901 502.566,783.568 503.5,782.5 Z"/></g>
<g><path style="opacity:1" fill="#5a5a59" d="M 522.5,785.5 C 521.848,786.725 520.681,787.392 519,787.5C 517.615,787.486 516.449,787.152 515.5,786.5C 517.95,786.702 520.283,786.369 522.5,785.5 Z"/></g>
<g><path style="opacity:1" fill="#373837" d="M 752.5,789.5 C 753.833,790.167 753.833,790.167 752.5,789.5 Z"/></g>
<g><path style="opacity:1" fill="#373837" d="M 752.5,790.5 C 751.833,791.167 751.833,791.167 752.5,790.5 Z"/></g>
<g><path style="opacity:1" fill="#373837" d="M 756.5,790.5 C 757.833,791.167 757.833,791.167 756.5,790.5 Z"/></g>
<g><path style="opacity:1" fill="#333333" d="M 289.5,794.5 C 289.103,795.525 288.437,795.692 287.5,795C 288.094,794.536 288.761,794.369 289.5,794.5 Z"/></g>
<g><path style="opacity:1" fill="#373837" d="M 288.5,796.5 C 289.833,797.167 289.833,797.167 288.5,796.5 Z"/></g>
<g><path style="opacity:1" fill="#3d3837" d="M 290.5,797.5 C 291.833,798.167 291.833,798.167 290.5,797.5 Z"/></g>
<g><path style="opacity:1" fill="#373837" d="M 293.5,798.5 C 294.833,799.167 294.833,799.167 293.5,798.5 Z"/></g>
<g><path style="opacity:1" fill="#373837" d="M 297.5,800.5 C 296.833,801.167 296.833,801.167 297.5,800.5 Z"/></g>
<g><path style="opacity:1" fill="#313231" d="M 730.5,804.5 C 731.833,805.167 731.833,805.167 730.5,804.5 Z"/></g>
<g><path style="opacity:1" fill="#373837" d="M 305.5,805.5 C 305.631,806.239 305.464,806.906 305,807.5C 304.308,806.563 304.475,805.897 305.5,805.5 Z"/></g>
<g><path style="opacity:1" fill="#373837" d="M 314.5,812.5 C 313.233,813.087 312.233,813.087 311.5,812.5C 312.614,811.224 313.614,811.224 314.5,812.5 Z"/></g>
<g><path style="opacity:1" fill="#373837" d="M 314.5,812.5 C 315.167,812.5 315.5,812.833 315.5,813.5C 315.167,813.167 314.833,812.833 314.5,812.5 Z"/></g>
<g><path style="opacity:1" fill="#373837" d="M 315.5,813.5 C 316.833,814.167 316.833,814.167 315.5,813.5 Z"/></g>
<g><path style="opacity:1" fill="#373837" d="M 311.5,814.5 C 312.833,815.167 312.833,815.167 311.5,814.5 Z"/></g>
<g><path style="opacity:1" fill="#373837" d="M 716.5,814.5 C 717.833,815.167 717.833,815.167 716.5,814.5 Z"/></g>
<g><path style="opacity:1" fill="#373837" d="M 330.5,820.5 C 329.833,821.167 329.833,821.167 330.5,820.5 Z"/></g>
<g><path style="opacity:1" fill="#3d3837" d="M 704.5,820.5 C 705.833,821.167 705.833,821.167 704.5,820.5 Z"/></g>
<g><path style="opacity:1" fill="#373837" d="M 710.5,820.5 C 711.833,821.167 711.833,821.167 710.5,820.5 Z"/></g>
<g><path style="opacity:1" fill="#373837" d="M 702.5,821.5 C 703.833,822.167 703.833,822.167 702.5,821.5 Z"/></g>
<g><path style="opacity:1" fill="#373837" d="M 700.5,822.5 C 701.833,823.167 701.833,823.167 700.5,822.5 Z"/></g>
<g><path style="opacity:1" fill="#373837" d="M 338.5,824.5 C 337.833,825.167 337.833,825.167 338.5,824.5 Z"/></g>
<g><path style="opacity:1" fill="#373837" d="M 340.5,826.5 C 341.833,827.167 341.833,827.167 340.5,826.5 Z"/></g>
<g><path style="opacity:1" fill="#373837" d="M 342.5,827.5 C 343.833,828.167 343.833,828.167 342.5,827.5 Z"/></g>
<g><path style="opacity:1" fill="#373837" d="M 350.5,830.5 C 350.103,831.525 349.437,831.692 348.5,831C 349.094,830.536 349.761,830.369 350.5,830.5 Z"/></g>
<g><path style="opacity:1" fill="#373837" d="M 684.5,830.5 C 685.833,831.167 685.833,831.167 684.5,830.5 Z"/></g>
<g><path style="opacity:1" fill="#3d3e3d" d="M 628.5,833.5 C 625.999,833.489 625.832,832.822 628,831.5C 628.464,832.094 628.631,832.761 628.5,833.5 Z"/></g>
<g><path style="opacity:1" fill="#373837" d="M 675.5,834.5 C 676.833,835.167 676.833,835.167 675.5,834.5 Z"/></g>
<g><path style="opacity:1" fill="#373831" d="M 361.5,835.5 C 361.5,835.833 361.5,836.167 361.5,836.5C 360.83,836.019 360.83,835.685 361.5,835.5 Z"/></g>
<g><path style="opacity:1" fill="#373837" d="M 361.5,837.5 C 361.5,837.167 361.5,836.833 361.5,836.5C 362.376,836.369 363.043,836.702 363.5,837.5C 363.03,838.463 362.363,838.463 361.5,837.5 Z"/></g>
<g><path style="opacity:1" fill="#373837" d="M 361.5,837.5 C 360.833,838.167 360.833,838.167 361.5,837.5 Z"/></g>
<g><path style="opacity:1" fill="#403e3e" d="M 621.5,836.5 C 619.562,838.163 617.228,838.829 614.5,838.5C 616.599,837.388 618.933,836.721 621.5,836.5 Z"/></g>
<g><path style="opacity:1" fill="#424243" d="M 613.5,838.5 C 611.562,840.163 609.228,840.829 606.5,840.5C 608.599,839.388 610.933,838.721 613.5,838.5 Z"/></g>
<g><path style="opacity:1" fill="#373837" d="M 377.5,842.5 C 378.833,843.167 378.833,843.167 377.5,842.5 Z"/></g>
<g><path style="opacity:1" fill="#373837" d="M 650.5,844.5 C 651.833,845.167 651.833,845.167 650.5,844.5 Z"/></g>
<g><path style="opacity:1" fill="#3d3e37" d="M 385.5,845.5 C 386.833,846.167 386.833,846.167 385.5,845.5 Z"/></g>
<g><path style="opacity:1" fill="#191919" d="M 434.5,842.5 C 444.221,844.045 453.888,845.712 463.5,847.5C 469.274,848.946 475.274,849.612 481.5,849.5C 492.133,850.914 502.966,851.581 514,851.5C 520.343,851.5 526.509,851.166 532.5,850.5C 537.772,849.6 543.105,849.267 548.5,849.5C 552.514,849.334 556.514,849.501 560.5,850C 517.178,854.86 474.178,852.86 431.5,844C 430.833,843.667 430.167,843.333 429.5,843C 431.134,842.506 432.801,842.34 434.5,842.5 Z"/></g>
<g><path style="opacity:1" fill="#1a1a1a" d="M 591.5,843.5 C 593.527,843.338 595.527,843.505 597.5,844C 590.658,846.303 583.658,847.303 576.5,847C 577.737,846.768 578.737,846.268 579.5,845.5C 583.426,844.448 587.426,843.782 591.5,843.5 Z"/></g>
<g><path style="opacity:1" fill="#3e3c38" d="M 644.5,847.5 C 645.251,846.427 646.251,846.26 647.5,847C 646.552,847.483 645.552,847.649 644.5,847.5 Z"/></g>
<g><path style="opacity:1" fill="#3e3e3e" d="M 531.5,849.5 C 529.897,849.688 528.563,849.188 527.5,848C 529.352,847.227 530.686,847.727 531.5,849.5 Z"/></g>
<g><path style="opacity:1" fill="#5a595a" d="M 463.5,847.5 C 468.729,847.996 473.562,847.996 478,847.5C 479.302,848.085 480.469,848.751 481.5,849.5C 475.274,849.612 469.274,848.946 463.5,847.5 Z"/></g>
<g><path style="opacity:1" fill="#5d5c5c" d="M 402.5,849.5 C 403.791,849.263 404.791,849.596 405.5,850.5C 404.504,850.414 403.671,850.748 403,851.5C 402.536,850.906 402.369,850.239 402.5,849.5 Z"/></g>
<g><path style="opacity:1" fill="#494847" d="M 481.5,849.5 C 498.33,850.557 514.997,850.557 531.5,849.5C 532.167,849.5 532.5,849.833 532.5,850.5C 526.509,851.166 520.343,851.5 514,851.5C 502.966,851.581 492.133,850.914 481.5,849.5 Z"/></g>
<g><path style="opacity:1" fill="#373837" d="M 631.5,850.5 C 632.833,851.167 632.833,851.167 631.5,850.5 Z"/></g>
<g><path style="opacity:1" fill="#434241" d="M 413.5,852.5 C 416.228,852.171 418.562,852.837 420.5,854.5C 417.933,854.279 415.599,853.612 413.5,852.5 Z"/></g>
<g><path style="opacity:1" fill="#373837" d="M 624.5,852.5 C 625.833,853.167 625.833,853.167 624.5,852.5 Z"/></g>
<g><path style="opacity:1" fill="#373837" d="M 403.5,853.5 C 404.833,854.167 404.833,854.167 403.5,853.5 Z"/></g>
<g><path style="opacity:1" fill="#3e3c38" d="M 410.5,853.5 C 411.239,853.369 411.906,853.536 412.5,854C 411.563,854.692 410.897,854.525 410.5,853.5 Z"/></g>
<g><path style="opacity:1" fill="#52514e" d="M 612.5,854.5 C 613.568,853.566 614.901,853.232 616.5,853.5C 617.463,854.363 617.463,855.03 616.5,855.5C 615.264,854.754 613.93,854.421 612.5,854.5 Z"/></g>
<g><path style="opacity:1" fill="#3d3837" d="M 622.5,853.5 C 623.833,854.167 623.833,854.167 622.5,853.5 Z"/></g>
<g><path style="opacity:1" fill="#373837" d="M 401.5,854.5 C 402.833,855.167 402.833,855.167 401.5,854.5 Z"/></g>
<g><path style="opacity:1" fill="#373837" d="M 405.5,854.5 C 406.833,855.167 406.833,855.167 405.5,854.5 Z"/></g>
<g><path style="opacity:1" fill="#3c3b38" d="M 620.5,853.5 C 621.525,853.897 621.692,854.563 621,855.5C 620.536,854.906 620.369,854.239 620.5,853.5 Z"/></g>
<g><path style="opacity:1" fill="#3a3939" d="M 433.5,860.5 C 433.082,859.778 432.416,859.278 431.5,859C 432.635,858.251 433.635,858.417 434.5,859.5C 434.376,860.107 434.043,860.44 433.5,860.5 Z"/></g>
<g><path style="opacity:1" fill="#5d5e5c" d="M 588.5,859.5 C 590.265,858.539 592.265,858.205 594.5,858.5C 594.672,859.492 594.338,860.158 593.5,860.5C 592.081,859.549 590.415,859.216 588.5,859.5 Z"/></g>
<g><path style="opacity:1" fill="#3d3837" d="M 436.5,859.5 C 437.833,860.167 437.833,860.167 436.5,859.5 Z"/></g>
<g><path style="opacity:1" fill="#373837" d="M 438.5,859.5 C 439.833,860.167 439.833,860.167 438.5,859.5 Z"/></g>
<g><path style="opacity:1" fill="#191818" d="M 464.5,862.5 C 462.167,862.5 459.833,862.5 457.5,862.5C 457.5,861.833 457.167,861.5 456.5,861.5C 453.091,860.097 449.425,859.43 445.5,859.5C 443.585,859.784 441.919,859.451 440.5,858.5C 439.391,857.71 438.058,857.21 436.5,857C 449.156,858.379 461.822,860.046 474.5,862C 471.183,862.498 467.85,862.665 464.5,862.5 Z"/></g>
<g><path style="opacity:1" fill="#3d383d" d="M 596.5,859.5 C 597.833,860.167 597.833,860.167 596.5,859.5 Z"/></g>
<g><path style="opacity:1" fill="#3d3e37" d="M 433.5,860.5 C 432.833,861.167 432.833,861.167 433.5,860.5 Z"/></g>
<g><path style="opacity:1" fill="#3a3839" d="M 441.5,861.5 C 441.897,860.475 442.563,860.308 443.5,861C 442.906,861.464 442.239,861.631 441.5,861.5 Z"/></g>
<g><path style="opacity:1" fill="#5d5b5a" d="M 445.5,859.5 C 449.425,859.43 453.091,860.097 456.5,861.5C 452.575,861.57 448.909,860.903 445.5,859.5 Z"/></g>
<g><path style="opacity:1" fill="#252424" d="M 620.5,852.5 C 620.5,852.833 620.5,853.167 620.5,853.5C 619.167,853.5 617.833,853.5 616.5,853.5C 614.901,853.232 613.568,853.566 612.5,854.5C 606.755,856.451 600.755,857.785 594.5,858.5C 592.265,858.205 590.265,858.539 588.5,859.5C 583.833,860.5 579.167,861.5 574.5,862.5C 542.897,866.705 511.23,867.372 479.5,864.5C 478.391,863.71 477.058,863.21 475.5,863C 477.333,862.833 479.167,862.667 481,862.5C 506.178,863.925 531.345,863.758 556.5,862C 578.73,859.27 600.73,855.603 622.5,851C 621.584,851.278 620.918,851.778 620.5,852.5 Z"/></g>
<g><path style="opacity:1" fill="#3e3c39" d="M 593.5,860.5 C 592.749,861.573 591.749,861.74 590.5,861C 591.448,860.517 592.448,860.351 593.5,860.5 Z"/></g>
<g><path style="opacity:1" fill="#3e3b3b" d="M 448.5,862.5 C 447.761,862.631 447.094,862.464 446.5,862C 447.437,861.308 448.103,861.475 448.5,862.5 Z"/></g>
<g><path style="opacity:1" fill="#373837" d="M 584.5,861.5 C 585.833,862.167 585.833,862.167 584.5,861.5 Z"/></g>
<g><path style="opacity:1" fill="#3d3e37" d="M 586.5,862.5 C 586.897,861.475 587.563,861.308 588.5,862C 587.906,862.464 587.239,862.631 586.5,862.5 Z"/></g>
<g><path style="opacity:1" fill="#3d3e3d" d="M 595.5,861.5 C 596.833,862.167 596.833,862.167 595.5,861.5 Z"/></g>
<g><path style="opacity:1" fill="#373837" d="M 437.5,862.5 C 438.833,863.167 438.833,863.167 437.5,862.5 Z"/></g>
<g><path style="opacity:1" fill="#373837" d="M 443.5,862.5 C 444.833,863.167 444.833,863.167 443.5,862.5 Z"/></g>
<g><path style="opacity:1" fill="#3d3e3d" d="M 448.5,862.5 C 449.833,863.167 449.833,863.167 448.5,862.5 Z"/></g>
<g><path style="opacity:1" fill="#3a3539" d="M 457.5,862.5 C 457.103,863.525 456.437,863.692 455.5,863C 456.094,862.536 456.761,862.369 457.5,862.5 Z"/></g>
<g><path style="opacity:1" fill="#313231" d="M 574.5,862.5 C 575.833,863.167 575.833,863.167 574.5,862.5 Z"/></g>
<g><path style="opacity:1" fill="#3d3837" d="M 580.5,862.5 C 581.833,863.167 581.833,863.167 580.5,862.5 Z"/></g>
<g><path style="opacity:1" fill="#3e3d3a" d="M 487.5,867.5 C 487.897,866.475 488.563,866.308 489.5,867C 488.906,867.464 488.239,867.631 487.5,867.5 Z"/></g>
<g><path style="opacity:1" fill="#3d3837" d="M 491.5,866.5 C 492.833,867.167 492.833,867.167 491.5,866.5 Z"/></g>
<g><path style="opacity:1" fill="#3a3938" d="M 493.5,867.5 C 494.601,866.402 495.934,866.235 497.5,867C 496.207,867.49 494.873,867.657 493.5,867.5 Z"/></g>
<g><path style="opacity:1" fill="#373837" d="M 537.5,866.5 C 538.833,867.167 538.833,867.167 537.5,866.5 Z"/></g>
<g><path style="opacity:1" fill="#3d3e3d" d="M 541.5,866.5 C 542.833,867.167 542.833,867.167 541.5,866.5 Z"/></g>
<g><path style="opacity:1" fill="#373e37" d="M 487.5,868.5 C 488.833,869.167 488.833,869.167 487.5,868.5 Z"/></g>
<g><path style="opacity:1" fill="#181918" d="M 307.5,933.5 C 308.833,934.167 308.833,934.167 307.5,933.5 Z"/></g>
</svg>
