<?xml version="1.0" standalone="no"?>
<!DOCTYPE svg PUBLIC "-//W3C//DTD SVG 20010904//EN"
 "http://www.w3.org/TR/2001/REC-SVG-20010904/DTD/svg10.dtd">
<svg version="1.0" xmlns="http://www.w3.org/2000/svg"
 width="512.000000pt" height="512.000000pt" viewBox="0 0 512.000000 512.000000"
 preserveAspectRatio="xMidYMid meet">

<g transform="translate(0.000000,512.000000) scale(0.100000,-0.100000)"
fill="#000000" stroke="none">
<path d="M914 5107 c-114 -43 -174 -143 -174 -288 l0 -57 -57 -23 c-208 -82
-297 -167 -339 -324 -11 -40 -14 -210 -14 -827 l0 -778 -80 0 -80 0 0 -165 0
-165 -85 0 -85 0 0 -1075 0 -1075 85 0 85 0 0 -109 c0 -96 3 -112 23 -141 49
-72 57 -75 275 -78 226 -4 250 -1 292 35 50 42 63 78 68 190 l5 103 1727 0
1727 0 5 -102 c5 -113 18 -149 68 -191 42 -36 66 -39 292 -35 218 3 226 6 276
78 19 29 22 45 22 141 l0 109 85 0 85 0 0 1075 0 1075 -85 0 -85 0 0 165 0
165 -80 0 -80 0 0 778 c0 617 -3 787 -14 827 -41 156 -131 242 -337 324 l-56
22 -5 83 c-6 95 -29 156 -78 203 -96 93 -244 95 -337 4 -57 -55 -76 -102 -81
-203 l-4 -87 -102 -41 c-159 -64 -246 -148 -286 -278 -19 -62 -20 -96 -20
-848 l0 -784 -125 0 -125 0 0 778 c0 487 -4 793 -11 821 -18 78 -60 150 -125
210 -50 47 -80 65 -166 100 l-105 42 -5 88 c-6 107 -39 177 -103 220 -99 68
-191 68 -290 0 -64 -43 -97 -113 -103 -220 l-5 -88 -106 -43 c-85 -35 -117
-54 -166 -100 -64 -59 -106 -131 -124 -209 -7 -28 -11 -334 -11 -821 l0 -778
-125 0 -125 0 0 784 c0 752 -1 786 -20 848 -40 130 -127 214 -286 278 l-102
41 -4 87 c-5 101 -24 148 -80 203 -63 61 -167 85 -244 56z m133 -179 c22 -20
23 -29 23 -149 l0 -127 146 -58 c163 -65 219 -105 250 -176 18 -41 19 -87 22
-825 l3 -783 -86 0 -85 0 0 370 0 370 -80 0 -80 0 0 -370 0 -370 -165 0 -165
0 0 558 c0 523 1 559 19 592 61 114 228 112 288 -3 11 -21 18 -67 21 -134 l5
-103 79 0 80 0 -3 123 c-4 109 -7 128 -32 178 -36 75 -107 140 -183 169 -141
53 -310 -4 -390 -132 -52 -82 -54 -109 -54 -700 l0 -548 -80 0 -80 0 0 776 c0
583 3 787 12 818 8 25 30 59 58 86 38 38 69 54 193 103 l147 59 0 123 c0 109
2 125 21 149 27 34 82 36 116 4z m1570 0 c22 -20 23 -29 23 -149 l0 -127 146
-58 c161 -65 209 -98 246 -172 l23 -47 3 -782 3 -783 -86 0 -85 0 0 370 0 370
-80 0 -80 0 0 -370 0 -370 -170 0 -171 0 3 558 c3 506 5 560 20 589 50 91 171
116 252 52 44 -35 58 -74 64 -186 l5 -103 79 0 80 0 -3 123 c-4 109 -7 128
-32 179 -55 112 -175 188 -297 188 -122 0 -242 -76 -297 -188 l-28 -57 -3
-577 -3 -578 -85 0 -85 0 3 783 3 782 23 47 c37 74 85 107 246 172 l146 58 0
126 c0 115 2 128 22 149 28 30 83 31 115 1z m1572 -4 c19 -24 21 -40 21 -149
l0 -123 148 -59 c123 -49 154 -65 192 -103 28 -27 50 -61 58 -86 9 -31 12
-235 12 -818 l0 -776 -80 0 -80 0 0 370 0 370 -85 0 -85 0 0 -370 0 -370 -165
0 -165 0 0 533 c0 292 5 550 10 571 18 80 81 130 160 129 57 -1 101 -23 132
-65 20 -29 23 -47 26 -145 l4 -113 84 0 84 0 0 93 c0 152 -34 244 -116 316
-87 77 -220 101 -328 61 -76 -29 -147 -94 -183 -169 l-28 -56 -3 -577 -3 -578
-85 0 -85 0 3 783 c3 738 4 784 22 825 31 71 87 111 250 176 l146 58 0 126 c0
115 2 128 22 149 31 33 90 32 117 -3z m601 -2364 l0 -79 -82 -3 -83 -3 0 -80
0 -80 163 -3 162 -2 0 -905 0 -905 -2390 0 -2390 0 0 905 0 905 2145 0 2145 0
0 85 0 85 -2065 0 -2065 0 0 80 0 80 2230 0 2230 0 0 -80z m-4130 -2310 l0
-80 -165 0 -165 0 0 80 0 80 165 0 165 0 0 -80z m4130 0 l0 -80 -165 0 -165 0
0 80 0 80 165 0 165 0 0 -80z"/>
<path d="M1222 2140 c-497 -68 -786 -605 -567 -1055 97 -200 258 -336 470
-397 114 -32 289 -32 395 1 134 41 226 96 320 191 96 96 148 178 187 295 25
73 27 94 28 230 0 139 -2 156 -28 230 -71 202 -213 360 -401 445 -118 54 -277
77 -404 60z m227 -175 c72 -17 181 -66 201 -91 12 -13 6 -23 -42 -71 l-55 -55
-43 22 c-157 80 -350 49 -476 -76 -239 -235 -109 -637 223 -695 197 -35 402
95 459 290 24 83 15 209 -21 285 l-27 58 58 59 c55 55 58 57 71 39 55 -79 103
-234 103 -332 -1 -119 -61 -279 -141 -371 -54 -63 -148 -128 -234 -162 -92
-37 -246 -46 -345 -20 -360 93 -538 492 -369 826 36 73 127 172 202 220 54 35
148 72 207 82 58 10 169 6 229 -8z m-3 -351 c62 -38 101 -94 116 -166 21 -100
-23 -197 -116 -255 -59 -37 -154 -43 -223 -13 -202 86 -192 379 16 457 60 22
151 12 207 -23z"/>
<path d="M2310 1708 c-73 -50 -75 -57 -78 -281 -4 -228 2 -261 53 -306 50 -43
90 -51 275 -51 185 0 225 8 275 51 51 45 57 78 53 306 -3 224 -5 231 -78 281
-32 21 -41 22 -250 22 -209 0 -218 -1 -250 -22z m418 -305 l2 -163 -170 0
-170 0 0 158 c0 87 3 162 7 166 4 3 79 5 167 4 l161 -3 3 -162z"/>
<path d="M3140 1709 c-74 -43 -75 -47 -75 -304 0 -225 1 -231 23 -263 43 -60
67 -66 273 -70 196 -4 247 3 293 39 57 45 61 65 61 295 l0 210 -27 41 c-45 68
-67 73 -305 73 -191 0 -211 -2 -243 -21z m410 -304 l0 -165 -165 0 -165 0 0
165 0 165 165 0 165 0 0 -165z"/>
<path d="M3959 1707 c-19 -12 -44 -42 -57 -67 -22 -43 -23 -53 -20 -251 l3
-206 28 -36 c52 -69 66 -72 302 -72 199 0 212 1 245 22 20 12 46 40 58 62 22
39 23 48 20 255 -3 238 -5 244 -78 294 -32 21 -41 22 -250 22 -209 0 -218 -1
-251 -23z m421 -302 l0 -165 -165 0 -165 0 0 165 0 165 165 0 165 0 0 -165z"/>
</g>
</svg>
