<?xml version="1.0" encoding="UTF-8"?>
<svg version="1.1" xmlns="http://www.w3.org/2000/svg" width="512" height="512">
<path d="M0 0 C168.96 0 337.92 0 512 0 C512 168.96 512 337.92 512 512 C343.04 512 174.08 512 0 512 C0 343.04 0 174.08 0 0 Z M279 87 C281.31 109.44 283.62 131.88 286 155 C280.39 150.38 274.78 145.76 269 141 C263.77775324 136.88653425 263.77775324 136.88653425 258.54296875 132.7890625 C253.19217085 128.59727674 247.94021939 124.28278599 242.671875 119.98828125 C239.79387546 117.64278467 236.90344164 115.31398453 234 113 C228.84495322 108.89001381 223.73224875 104.72835073 218.61914062 100.56640625 C217.3275668 99.51533238 216.03349328 98.46732039 214.73657227 97.42285156 C213.21201469 96.17371315 211.73091485 94.87192431 210.2578125 93.5625 C209.51273437 93.046875 208.76765625 92.53125 208 92 C204.2304854 92.62371701 204.2304854 92.62371701 201 94 C202.69218034 97.91973978 205.28794338 101.07234166 207.9375 104.375 C208.93761716 105.63402152 209.93761387 106.89313874 210.9375 108.15234375 C211.44796875 108.79284668 211.9584375 109.43334961 212.484375 110.09326172 C214.36583493 112.46024014 216.23047345 114.8400825 218.09399414 117.22119141 C222.36268384 122.6743785 226.66789977 128.09707487 231 133.5 C236.24003028 140.03528076 241.4272038 146.61036483 246.59277344 153.20458984 C249.12122416 156.43051396 251.65472248 159.65247273 254.1875 162.875 C255.11851019 164.05987964 256.04950178 165.2447739 256.98046875 166.4296875 C257.64691406 167.27789062 258.31335938 168.12609375 259 169 C254.91193999 169 252.3892538 168.29292247 248.53955078 167.00317383 C247.89707744 166.78974051 247.25460409 166.5763072 246.59266186 166.35640621 C244.45824573 165.64569259 242.3268168 164.92642614 240.1953125 164.20703125 C238.68881867 163.70330537 237.18215738 163.20008009 235.67533875 162.69732666 C231.65227812 161.35328973 227.63178374 160.00172607 223.61175919 158.64863968 C220.30630211 157.53722373 216.99927481 156.43052491 213.69219685 155.32394314 C194.19856445 148.80082417 174.71398707 142.24861083 155.29931641 135.4934082 C154.26615044 135.13566315 154.26615044 135.13566315 153.21211243 134.77069092 C151.44493947 134.1584289 149.67906154 133.54243226 147.91333008 132.92602539 C144.01731689 131.67020829 144.01731689 131.67020829 140 131 C137.16588845 133.333492 137.16588845 133.333492 135 136 C136.29629808 139.88889425 137.6003561 140.166712 141.16015625 142.08203125 C142.25150879 142.67701416 143.34286133 143.27199707 144.46728516 143.88500977 C145.05245911 144.19866486 145.63763306 144.51231995 146.24053955 144.83547974 C149.34670606 146.50115125 152.43594836 148.19774532 155.52734375 149.890625 C156.15854126 150.23525284 156.78973877 150.57988068 157.44006348 150.93495178 C163.40158674 154.19824303 169.27048672 157.61119649 175.125 161.0625 C183.19611872 165.80876379 191.31818686 170.44720664 199.5 175 C213.46427174 182.77258709 227.29896019 190.77178398 241 199 C240.2797763 199.06092299 239.55955259 199.12184599 238.81750393 199.18461514 C221.28158427 200.66810068 203.74585498 202.1538163 186.21033382 203.64200497 C177.73023985 204.36163188 169.25008348 205.08050777 160.76977539 205.79760742 C153.37714386 206.42273446 145.98463406 207.04927902 138.59226614 207.67751604 C134.67917597 208.01001864 130.76602908 208.34181788 126.85273552 208.67191887 C123.16645978 208.98289263 119.48035021 209.2957672 115.7943573 209.610075 C113.80268094 209.77941582 111.81083543 209.94676346 109.81898499 210.11404419 C104.18302395 210.59631913 98.58619697 211.1031686 93 212 C92.67 215.3 92.34 218.6 92 222 C168.23 230.415 168.23 230.415 246 239 C230.99069767 251.86511628 230.99069767 251.86511628 223.77734375 257.72265625 C220.65603633 260.28204054 217.5754997 262.88593791 214.5 265.5 C209.65045949 269.62107792 204.74839036 273.66991483 199.8125 277.6875 C196.68200334 280.26146392 193.58827539 282.87569086 190.5 285.5 C185.65040619 289.62101634 180.74839194 293.66991354 175.8125 297.6875 C172.68200334 300.26146392 169.58827539 302.87569086 166.5 305.5 C161.65040619 309.62101634 156.74839194 313.66991354 151.8125 317.6875 C148.12427564 320.72004003 144.48737146 323.81093999 140.84912109 326.90307617 C136.4298922 330.65250539 131.95160191 334.32554442 127.45703125 337.984375 C124.26033022 340.60678793 121.12446878 343.29212706 118 346 C119.12451727 348.9719385 120.22293791 351.33440687 122 354 C125.76323294 353.29272371 128.7820034 351.65663532 132.14453125 349.859375 C133.04128067 349.38170181 133.04128067 349.38170181 133.95614624 348.89437866 C135.91084868 347.8510036 137.86177504 346.8007902 139.8125 345.75 C141.17158938 345.02189523 142.53072064 344.29386862 143.88989258 343.56591797 C153.00092615 338.67374769 162.02694515 333.64348816 171.00708008 328.51464844 C177.5402731 324.792645 184.15068396 321.25736722 190.82373047 317.79394531 C196.8995637 314.62251476 202.86164861 311.27431068 208.8125 307.875 C218.41848792 302.39147284 228.14120044 297.16008433 237.91555786 291.98599243 C249.44235264 285.87994743 260.82440956 279.54795261 272.13769531 273.05297852 C273.40687549 272.33536261 274.6959169 271.65204155 276 271 C275.30411147 278.64902139 273.87442697 286.04986327 272.31616211 293.56616211 C272.03980268 294.91390871 271.76380673 296.26172988 271.48814392 297.60961914 C270.8973807 300.49432992 270.30409339 303.3785054 269.7087841 306.26228142 C268.76786282 310.82038276 267.83272349 315.37965874 266.89833069 319.93910217 C265.42104923 327.14420268 263.93998987 334.34852039 262.4572683 341.55250317 C259.79777433 354.47419394 257.14305147 367.39686396 254.49225241 380.32034117 C253.56186107 384.8554136 252.62925281 389.39002291 251.69486415 393.92427337 C251.11571043 396.73641582 250.53813084 399.54887995 249.96094704 402.36142731 C249.5639084 404.29353981 249.16488244 406.22524359 248.76580811 408.15693665 C248.41458138 409.87065964 248.41458138 409.87065964 248.05625916 411.6190033 C247.85107635 412.61575545 247.64589354 413.61250761 247.43449306 414.63946438 C246.93965852 416.92779451 246.93965852 416.92779451 247 419 C249.97 419 252.94 419 256 419 C260.78105605 409.78003844 265.03475698 400.46009205 268.96447754 390.85061646 C270.58196247 386.89695113 272.21808944 382.95098632 273.8515625 379.00390625 C274.19159302 378.18109665 274.53162354 377.35828705 274.88195801 376.51054382 C278.60964631 367.50161636 282.42604551 358.53089282 286.25 349.5625 C290.934163 338.57509386 295.60288091 327.5816916 300.23046875 316.5703125 C301.10708564 314.48624224 301.98371316 312.40217645 302.86035156 310.31811523 C304.14259809 307.26941573 305.42376701 304.22028643 306.70153809 301.16970825 C307.88035329 298.3554842 309.06287728 295.54284454 310.24609375 292.73046875 C310.59737839 291.88868073 310.94866302 291.0468927 311.31059265 290.17959595 C311.79964836 289.01984756 311.79964836 289.01984756 312.29858398 287.83666992 C312.58040024 287.16455978 312.86221649 286.49244965 313.15257263 285.79997253 C314 284 314 284 316 281 C318.94114482 289.79979209 321.88045472 298.60019465 324.81770039 307.40128899 C326.18306032 311.49224929 327.54894947 315.58303095 328.91625977 319.67333984 C336.40425106 342.07533136 343.77450181 364.51191373 351 387 C353.95737841 387.21941583 353.95737841 387.21941583 356.19248962 385.92926025 C358.31048167 384.06644368 358.31048167 384.06644368 358.26759338 380.94915771 C358.15294235 379.68944153 358.03829132 378.42972534 357.92016602 377.13183594 C357.82953683 376.07968714 357.82953683 376.07968714 357.73707676 375.00628281 C356.87355124 365.60278407 355.56218161 356.24364293 354.27734375 346.890625 C354.00915979 344.90533004 353.74155691 342.91995651 353.47450256 340.93450928 C352.77733463 335.76032689 352.07390158 330.58701848 351.36859131 325.41394043 C350.23504963 317.0944539 349.10971367 308.77386012 347.98724556 300.45287323 C347.59536919 297.55646425 347.19986033 294.66056805 346.80393982 291.76470947 C346.56440914 289.99712661 346.32498763 288.22952895 346.08569336 286.46191406 C345.97505554 285.65986542 345.86441772 284.85781677 345.75042725 284.03146362 C345.29419549 280.64082957 345 277.42908602 345 274 C356.35373975 286.08376025 356.35373975 286.08376025 361.5 292.5 C364.84301761 296.66665963 368.35113344 300.60421766 372 304.5 C375.64886656 308.39578234 379.15698239 312.33334037 382.5 316.5 C386.01068097 320.86097434 389.66430769 325.05409839 393.4375 329.1875 C393.95828125 329.765 394.4790625 330.3425 395.015625 330.9375 C396.30145215 332.33189303 397.64617855 333.6715231 399 335 C399.66 335 400.32 335 401 335 C403.2963201 332.21217817 403.2963201 332.21217817 402.82348633 329.2109375 C401.91099379 325.65294702 400.57529463 322.85347875 398.82421875 319.625 C398.34258018 318.72859802 398.34258018 318.72859802 397.85121155 317.81408691 C396.80482403 315.87150594 395.74636845 313.93580156 394.6875 312 C393.95467765 310.64557485 393.22258813 309.29075294 392.49121094 307.93554688 C390.67061859 304.56708188 388.84012348 301.2041312 387.0055542 297.84326172 C385.56345956 295.19978627 384.12768195 292.55289046 382.69140625 289.90625 C380.29928284 285.50517906 377.89598329 281.11033729 375.48828125 276.71777344 C372.7353412 271.69058698 369.9935655 266.65730665 367.25 261.625 C366.23441857 259.76299707 365.21879786 257.90101556 364.203125 256.0390625 C363.46874737 254.69270977 362.73437189 253.34635586 362 252 C369.0387023 254.00129497 375.85797715 256.36972362 382.6796875 259.01171875 C384.67962452 259.77685736 386.67962638 260.54182647 388.6796875 261.30664062 C391.79458061 262.50249301 394.90862495 263.70047462 398.02148438 264.90161133 C401.05121594 266.06906346 404.08396484 267.22837323 407.1171875 268.38671875 C408.51564407 268.93038338 408.51564407 268.93038338 409.94235229 269.48503113 C410.81070709 269.81570084 411.67906189 270.14637054 412.57373047 270.48706055 C413.71429398 270.92649239 413.71429398 270.92649239 414.87789917 271.37480164 C417.27077778 272.18840238 417.27077778 272.18840238 421 272 C421.69731983 268.77949049 421.69731983 268.77949049 421 265 C418.60421839 262.29651787 415.68059416 260.43212345 412.6875 258.4375 C410.9383911 257.21282636 409.18970509 255.98754854 407.44140625 254.76171875 C406.53922363 254.14087402 405.63704102 253.5200293 404.70751953 252.88037109 C400.44948719 249.92316955 396.28950334 246.83682633 392.125 243.75 C391.34036377 243.17217773 390.55572754 242.59435547 389.74731445 241.99902344 C371.69243544 228.69243544 371.69243544 228.69243544 369 226 C385.17 222.04 401.34 218.08 418 214 C417.67 211.69 417.34 209.38 417 207 C405.4009769 204.60803556 393.7776409 202.36597017 382.125 200.25 C380.9194043 200.02739502 379.71380859 199.80479004 378.47167969 199.57543945 C377.32860352 199.37007568 376.18552734 199.16471191 375.0078125 198.953125 C373.99348145 198.76911133 372.97915039 198.58509766 371.93408203 198.39550781 C368.92002992 197.98922021 366.03749075 197.93105602 363 198 C368.64809055 190.02239745 374.37517774 182.10889275 380.1875 174.25 C384.88634984 167.89607435 389.53880271 161.52408175 394 155 C393.01 153.68 392.02 152.36 391 151 C387.59167224 151.57815992 384.76711052 152.42423971 381.66870117 153.94946289 C380.848228 154.3498024 380.02775482 154.75014191 379.18241882 155.16261292 C378.3114003 155.59492722 377.44038177 156.02724152 376.54296875 156.47265625 C375.64000565 156.9151622 374.73704254 157.35766815 373.80671692 157.81358337 C370.93093127 159.22444331 368.05920074 160.64334696 365.1875 162.0625 C363.23528816 163.02201786 361.28281707 163.98100845 359.33007812 164.93945312 C354.55036321 167.2868647 349.77394994 169.64088818 345 172 C346.14988124 156.8947168 347.46637177 141.82055621 349.03442383 126.75341797 C349.15970459 125.53928223 349.28498535 124.32514648 349.4140625 123.07421875 C349.5270166 121.99744873 349.6399707 120.92067871 349.75634766 119.8112793 C350.05756391 116.80612621 350.05756391 116.80612621 350 113 C347.18490007 110.7226499 347.18490007 110.7226499 344 111 C343.70456299 111.52094238 343.40912598 112.04188477 343.10473633 112.57861328 C337.1078146 123.14138621 331.05455023 133.6678365 324.875 144.125 C324.31917236 145.06617676 323.76334473 146.00735352 323.19067383 146.97705078 C321.1833341 150.36507895 319.18491242 153.72263136 317 157 C312.54102715 148.29869464 308.37899565 139.54412306 304.54284668 130.54672241 C303.44431443 127.97066851 302.33607044 125.39882531 301.22857666 122.82661438 C300.66053775 121.50705613 300.0929498 120.18730366 299.52581787 118.86735535 C296.62959413 112.12793692 293.69708573 105.40483316 290.75 98.6875 C290.28432617 97.62039795 289.81865234 96.5532959 289.33886719 95.45385742 C288.91250977 94.48295166 288.48615234 93.5120459 288.046875 92.51171875 C287.48758301 91.23494263 287.48758301 91.23494263 286.91699219 89.93237305 C286.151023 88.03913075 286.151023 88.03913075 285 87 C283.02 87 281.04 87 279 87 Z " fill="#000000" transform="translate(0,0)"/>
</svg>
